<?xml version="1.0" encoding="UTF-8"?>
<svg id="icons" xmlns="http://www.w3.org/2000/svg" viewBox="0 0 200 165">
  <defs>
    <style>
      .cls-1 {
        stroke-width: .4px;
      }

      .cls-1, .cls-2, .cls-3, .cls-4, .cls-5, .cls-6, .cls-7, .cls-8, .cls-9 {
        fill: none;
        stroke: #00b2de;
        stroke-miterlimit: 10;
      }

      .cls-2 {
        stroke-width: .27px;
      }

      .cls-3 {
        stroke-width: .53px;
      }

      .cls-4 {
        stroke-width: .13px;
      }

      .cls-5 {
        stroke-width: 2.14px;
      }

      .cls-6 {
        stroke-width: 1.07px;
      }

      .cls-7 {
        stroke-width: 1.6px;
      }

      .cls-8 {
        stroke-width: 2.67px;
      }

      .cls-9 {
        stroke-width: 3.21px;
      }
    </style>
  </defs>
  <g>
    <path class="cls-4" d="M96.24,53.28c26.2-21.47,64.98-17.63,86.45,8.57,21.47,26.2,17.63,64.98-8.57,86.45-26.2,21.47-64.98,17.63-86.45-8.57-21.47-26.2-17.63-64.98,8.57-86.45Z"/>
    <path class="cls-2" d="M99.63,57.41c23.92-19.6,59.32-16.09,78.93,7.82s16.09,59.32-7.82,78.93c-23.92,19.6-59.32,16.09-78.93-7.82-19.6-23.92-16.09-59.32,7.82-78.93Z"/>
    <path class="cls-1" d="M104,62.74c20.98-17.2,52.04-14.12,69.23,6.86,17.2,20.98,14.12,52.04-6.86,69.23-20.98,17.2-52.04,14.12-69.24-6.86-17.2-20.98-14.12-52.04,6.86-69.23Z"/>
    <path class="cls-3" d="M108.36,68.06c18.04-14.79,44.75-12.14,59.54,5.9,14.79,18.04,12.14,44.75-5.9,59.54-18.04,14.79-44.75,12.14-59.54-5.9-14.79-18.04-12.14-44.75,5.9-59.54Z"/>
    <path class="cls-6" d="M112.73,73.39c15.11-12.38,37.47-10.17,49.85,4.94,12.38,15.11,10.17,37.47-4.94,49.85-15.11,12.38-37.47,10.17-49.85-4.94s-10.16-37.47,4.94-49.85Z"/>
    <path class="cls-7" d="M117.09,78.72c12.17-9.97,30.18-8.19,40.16,3.98s8.19,30.18-3.98,40.16c-12.17,9.97-30.18,8.19-40.16-3.98-9.97-12.17-8.19-30.18,3.98-40.16Z"/>
    <path class="cls-5" d="M121.46,84.04c9.23-7.57,22.9-6.21,30.47,3.02,7.57,9.23,6.21,22.9-3.02,30.47s-22.9,6.21-30.47-3.02c-7.57-9.23-6.21-22.9,3.02-30.47Z"/>
    <path class="cls-8" d="M125.83,89.37c6.3-5.16,15.61-4.24,20.77,2.06,5.16,6.3,4.24,15.61-2.06,20.77s-15.62,4.24-20.78-2.06c-5.16-6.3-4.24-15.61,2.06-20.77Z"/>
    <circle class="cls-9" cx="135.18" cy="100.79" r="7.88"/>
  </g>
  <g>
    <path class="cls-4" d="M21.4,49.08c20.98-17.2,52.04-14.12,69.23,6.86,17.2,20.98,14.12,52.04-6.86,69.23-20.98,17.2-52.04,14.12-69.24-6.86C-2.65,97.34.42,66.28,21.4,49.08Z"/>
    <path class="cls-2" d="M25.77,54.41c18.04-14.79,44.75-12.14,59.54,5.9s12.14,44.75-5.9,59.54c-18.04,14.79-44.75,12.14-59.54-5.9s-12.14-44.75,5.9-59.54Z"/>
    <path class="cls-3" d="M30.14,59.74c15.11-12.38,37.47-10.17,49.85,4.94,12.38,15.11,10.17,37.47-4.94,49.85-15.11,12.38-37.47,10.17-49.85-4.94-12.38-15.11-10.16-37.47,4.94-49.85Z"/>
    <path class="cls-6" d="M34.5,65.06c12.17-9.97,30.18-8.19,40.16,3.98,9.97,12.17,8.19,30.18-3.98,40.16-12.17,9.97-30.18,8.19-40.16-3.98-9.97-12.17-8.19-30.18,3.98-40.16Z"/>
    <path class="cls-7" d="M38.87,70.39c9.23-7.57,22.9-6.21,30.47,3.02s6.21,22.9-3.02,30.47-22.9,6.21-30.47-3.02c-7.57-9.23-6.21-22.9,3.02-30.47Z"/>
    <path class="cls-5" d="M43.23,75.71c6.3-5.16,15.61-4.24,20.77,2.06s4.24,15.61-2.06,20.77c-6.3,5.16-15.62,4.24-20.78-2.06-5.16-6.3-4.24-15.61,2.06-20.77Z"/>
    <circle class="cls-9" cx="52.59" cy="87.13" r="7.88"/>
  </g>
  <g>
    <path class="cls-4" d="M54.63,9.57C67.82-1.24,87.35.7,98.17,13.89s8.88,32.73-4.32,43.54-32.73,8.88-43.54-4.32-8.88-32.73,4.32-43.54Z"/>
    <path class="cls-2" d="M57.82,13.47c11.05-9.05,27.4-7.43,36.45,3.61s7.43,27.4-3.61,36.45c-11.05,9.05-27.4,7.43-36.45-3.61s-7.43-27.4,3.61-36.45Z"/>
    <path class="cls-3" d="M61.01,17.36c8.9-7.29,22.07-5.99,29.37,2.91,7.29,8.9,5.99,22.07-2.91,29.37-8.9,7.29-22.07,5.99-29.37-2.91s-5.99-22.07,2.91-29.37Z"/>
    <path class="cls-6" d="M64.2,21.26c6.75-5.53,16.74-4.54,22.28,2.21s4.54,16.75-2.21,22.28-16.75,4.54-22.28-2.21c-5.53-6.75-4.54-16.74,2.21-22.28Z"/>
    <path class="cls-7" d="M67.4,25.15c4.6-3.77,11.42-3.1,15.19,1.51s3.1,11.42-1.51,15.19-11.42,3.1-15.19-1.51c-3.77-4.6-3.1-11.42,1.51-15.19Z"/>
    <circle class="cls-5" cx="74.24" cy="33.5" r="5.76"/>
  </g>
</svg>