<svg id="Group_3280" data-name="Group 3280" xmlns="http://www.w3.org/2000/svg" xmlns:xlink="http://www.w3.org/1999/xlink" width="729.804" height="484.054" viewBox="0 0 729.804 484.054">
  <defs>
    <clipPath id="clip-path">
      <rect id="Rectangle_2695" data-name="Rectangle 2695" width="729.804" height="484.054" fill="none"/>
    </clipPath>
    <clipPath id="clip-path-3">
      <rect id="Rectangle_2693" data-name="Rectangle 2693" width="590.872" height="447.69" transform="translate(115.387 18.182)" fill="none"/>
    </clipPath>
  </defs>
  <g id="Group_3279" data-name="Group 3279" clip-path="url(#clip-path)">
    <g id="Group_3278" data-name="Group 3278">
      <g id="Group_3277" data-name="Group 3277" clip-path="url(#clip-path)">
        <path id="Path_8291" data-name="Path 8291" d="M729.8,0h-580a75,75,0,0,0-75,75V417.941A75.39,75.39,0,0,1,0,484.054H75.393V484H729.8Z" fill="#00b3df"/>
        <g id="Group_3276" data-name="Group 3276" opacity="0.75">
          <g id="Group_3275" data-name="Group 3275">
            <g id="Group_3274" data-name="Group 3274" clip-path="url(#clip-path-3)">
              <path id="Path_8292" data-name="Path 8292" d="M244.431,34.91a.706.706,0,0,0,.447-.159l3.924-3.182a.713.713,0,1,0-.876-1.125l-.021.017-3.924,3.183a.713.713,0,0,0,.455,1.266" fill="none" stroke="#fff" stroke-linecap="round" stroke-linejoin="round" stroke-width="1"/>
              <path id="Path_8293" data-name="Path 8293" d="M255.615,42.689l-.514.037a.713.713,0,0,0,.051,1.424h.053l.514-.037a.713.713,0,0,0-.1-1.422" fill="none" stroke="#fff" stroke-linecap="round" stroke-linejoin="round" stroke-width="1"/>
              <path id="Path_8294" data-name="Path 8294" d="M252.983,42.879l-1.61.116-.513.038a.712.712,0,0,0,.05,1.423h.052l.513-.037,1.611-.116a.713.713,0,0,0-.1-1.422" fill="none" stroke="#fff" stroke-linecap="round" stroke-linejoin="round" stroke-width="1"/>
              <path id="Path_8295" data-name="Path 8295" d="M235.452,26.665a.712.712,0,0,0,.9-.45l1.62-4.858a.714.714,0,1,0-1.353-.455L235,25.76a.716.716,0,0,0,.455.9" fill="none" stroke="#fff" stroke-linecap="round" stroke-linejoin="round" stroke-width="1"/>
              <path id="Path_8296" data-name="Path 8296" d="M243.278,35.763c-5.036-6.212-11.874-11.616-14.624-9.387-.894.727-1.14,2.072-.727,3.941-.464,4.356-2.711,10.281-11.4,17.327a.855.855,0,0,0-.289.428c.2.409.428.824.661,1.227a24.2,24.2,0,0,0,5.477,6.611.874.874,0,0,1,.334.661.906.906,0,0,1-.2.591.893.893,0,0,1-.711.328.847.847,0,0,1-.545-.2c-.091-.075-.189-.152-.284-.24a25.822,25.822,0,0,1-5.612-6.866c-.119-.213-.246-.428-.364-.648l-3.211,2.6a4.761,4.761,0,0,0-.7,6.685l2.664,3.287a4.762,4.762,0,0,0,6.686.7l.075-.056a4.307,4.307,0,0,0,.838.727l11.54,7.617a2.948,2.948,0,0,0,1.624.5,2.689,2.689,0,0,0,.668-.091,2.349,2.349,0,0,0,1.523-1.231l.472-.951a4,4,0,0,0-1.561-4.936l-8.4-5.546c8.406-6.51,14.456-7.273,18.662-6.749a5.374,5.374,0,0,0,1.964.428c.1,0,.2-.006.3-.012a.912.912,0,0,0,.674-.158,2.062,2.062,0,0,0,.616-.352c1.266-1.027,1.234-3.281-.09-6.524A41.348,41.348,0,0,0,243.278,35.763Zm5.415,14.959a.8.8,0,0,1-.157.182c-.546.434-2.047.264-4.666-1.518a39.887,39.887,0,0,1-7.958-7.662,39.753,39.753,0,0,1-5.842-9.364c-1.2-2.934-1.058-4.439-.523-4.88a.8.8,0,0,1,.215-.12,1.37,1.37,0,0,1,.5-.091c2.021,0,6.793,3.079,11.91,9.381a39.72,39.72,0,0,1,5.842,9.364,10.2,10.2,0,0,1,.911,3.638A1.945,1.945,0,0,1,248.693,50.722Z" fill="none" stroke="#fff" stroke-linecap="round" stroke-linejoin="round" stroke-width="1"/>
              <path id="Path_8297" data-name="Path 8297" d="M235.39,36.757a2.787,2.787,0,0,0-.825.988c.711,1.052,1.505,2.11,2.364,3.161.806,1,1.637,1.939,2.474,2.819a2.765,2.765,0,0,0,1.146-.611c1.045-.85.743-2.959-.68-4.716s-3.425-2.493-4.476-1.643" fill="none" stroke="#fff" stroke-linecap="round" stroke-linejoin="round" stroke-width="1"/>
              <path id="Path_8298" data-name="Path 8298" d="M329.955,359.249v-8.078c0-.1.028-.14.134-.154.647-.086,1.294-.177,1.938-.278a27.651,27.651,0,0,0,4.877-1.213,21.877,21.877,0,0,0,6.34-3.371A14.082,14.082,0,0,0,346.6,342.5a9.53,9.53,0,0,0,1.494-6.132,9.231,9.231,0,0,0-.476-2.126,11.837,11.837,0,0,0-2.747-4.314,18.227,18.227,0,0,0-4.663-3.434,27.1,27.1,0,0,0-9.828-2.9c-.816-.085-1.639-.132-2.459-.171-.667-.032-1.337-.021-2.005-.034a16.453,16.453,0,0,0-2.661.172c-.877.125-1.757.251-2.625.429a25.1,25.1,0,0,0-7.008,2.527,18.319,18.319,0,0,0-4.483,3.348,12.959,12.959,0,0,0-2.224,3.061,9.83,9.83,0,0,0-1.066,3.645,8.711,8.711,0,0,0,.019,1.631,9.278,9.278,0,0,0,.493,2.2,11.721,11.721,0,0,0,2.653,4.174,18.266,18.266,0,0,0,4.651,3.453,25.791,25.791,0,0,0,5.525,2.146.53.53,0,0,1,.2.1q1.537,1.3,3.066,2.607,1.646,1.4,3.289,2.8l3.367,2.862.836.709" fill="none" stroke="#fff" stroke-linecap="round" stroke-linejoin="round" stroke-width="1"/>
              <path id="Path_8299" data-name="Path 8299" d="M304.416,357.455l.567-.476,2.28-1.92,2.232-1.88,2.078-1.748a.343.343,0,0,1,.135-.064,17.684,17.684,0,0,0,3.743-1.441,12.373,12.373,0,0,0,3.151-2.318,7.86,7.86,0,0,0,1.8-2.8,6.2,6.2,0,0,0,.334-1.472,5.913,5.913,0,0,0,.012-1.1,6.51,6.51,0,0,0-.721-2.444,8.719,8.719,0,0,0-1.507-2.055,12.465,12.465,0,0,0-3.04-2.249,17.1,17.1,0,0,0-4.748-1.695c-.589-.119-1.185-.2-1.78-.288a11.315,11.315,0,0,0-1.8-.114c-.453.01-.906,0-1.358.023-.556.026-1.116.054-1.667.115a18.476,18.476,0,0,0-6.659,1.948,12.332,12.332,0,0,0-3.16,2.307,7.936,7.936,0,0,0-1.859,2.894,6.175,6.175,0,0,0-.323,1.427,6.339,6.339,0,0,0,1.014,4.114,9.452,9.452,0,0,0,2.273,2.45,14.818,14.818,0,0,0,4.3,2.26,18.863,18.863,0,0,0,3.3.815c.437.067.875.127,1.313.186.072.009.091.039.091.1v5.42Z" fill="none" stroke="#fff" stroke-linecap="round" stroke-linejoin="round" stroke-width="1"/>
              <path id="Path_8300" data-name="Path 8300" d="M151.1,226.394l-3.026-.483a14.4,14.4,0,0,0-2.238-5.446l1.815-2.481a.388.388,0,0,0-.061-.544l-2.661-2.663a.454.454,0,0,0-.546-.06l-2.48,1.816a14.418,14.418,0,0,0-5.445-2.239l-.484-3.025a.453.453,0,0,0-.424-.363H131.8a.443.443,0,0,0-.424.363l-.484,3.025a14.412,14.412,0,0,0-5.445,2.239l-2.481-1.816a.388.388,0,0,0-.544.06l-2.662,2.663a.449.449,0,0,0-.061.544l1.815,2.481a14.423,14.423,0,0,0-2.239,5.446l-3.024.483a.456.456,0,0,0-.364.424v3.751a.441.441,0,0,0,.364.423l3.024.485a14.425,14.425,0,0,0,2.239,5.445L119.7,239.4a.387.387,0,0,0,.061.544l2.662,2.662a.45.45,0,0,0,.544.061l2.481-1.815a14.431,14.431,0,0,0,5.445,2.241l.484,3.025a.454.454,0,0,0,.424.363h3.751a.442.442,0,0,0,.424-.363l.484-3.025a14.418,14.418,0,0,0,5.445-2.239l2.48,1.816a.392.392,0,0,0,.546-.061l2.661-2.664a.45.45,0,0,0,.061-.544l-1.815-2.481a14.437,14.437,0,0,0,2.238-5.446l3.026-.484a.453.453,0,0,0,.363-.423v-3.752A.406.406,0,0,0,151.1,226.394Zm-17.365,9.318a7.019,7.019,0,1,1,7.018-7.018A7.018,7.018,0,0,1,133.736,235.712Z" fill="none" stroke="#fff" stroke-linecap="round" stroke-linejoin="round" stroke-width="1"/>
              <path id="Path_8301" data-name="Path 8301" d="M162.295,261.183l-.484-2a9.11,9.11,0,0,0,2.785-2.9l2,.483a.336.336,0,0,0,.3-.185l.968-2.42c.061-.122,0-.242-.121-.363l-1.759-1.089a10.155,10.155,0,0,0-.06-4.054l1.759-1.089a.292.292,0,0,0,.121-.363l-1.032-2.356a.333.333,0,0,0-.3-.185l-2,.606a9.073,9.073,0,0,0-2.9-2.783l.484-2a.331.331,0,0,0-.185-.3l-2.42-.967c-.121-.061-.241,0-.363.12l-1.028,1.759a10.173,10.173,0,0,0-4.054.06l-1.089-1.759a.292.292,0,0,0-.363-.121l-2.36,1.028a.333.333,0,0,0-.185.3l.484,2a9.093,9.093,0,0,0-2.783,2.9l-2-.483a.33.33,0,0,0-.3.185l-.961,2.421c-.06.121,0,.242.121.362l1.759,1.09a10.21,10.21,0,0,0,.06,4.054l-1.759,1.088a.292.292,0,0,0-.121.363l1.029,2.359a.333.333,0,0,0,.3.181l2-.483a9.1,9.1,0,0,0,2.9,2.783l-.484,2a.33.33,0,0,0,.185.3l2.42.969c.122.06.243,0,.363-.122l1.09-1.753a10.173,10.173,0,0,0,4.054-.061l1.089,1.759a.291.291,0,0,0,.363.12l2.359-1.029c.122-.185.186-.3.122-.424m-10.532-8.414a4.721,4.721,0,1,1,.021.051l-.021-.051" fill="none" stroke="#fff" stroke-linecap="round" stroke-linejoin="round" stroke-width="1"/>
              <path id="Path_8302" data-name="Path 8302" d="M509.572,440.166a12.22,12.22,0,0,0-3.627,3.052,8.007,8.007,0,0,0-10.559,7.51q-.309-.025-.627-.025a7.967,7.967,0,0,0-5.7,2.389,13.381,13.381,0,1,1,20.513-12.926" fill="none" stroke="#fff" stroke-linecap="round" stroke-linejoin="round" stroke-width="1"/>
              <line id="Line_931" data-name="Line 931" x1="6.83" transform="translate(473.995 441.833)" fill="none" stroke="#fff" stroke-linecap="round" stroke-linejoin="round" stroke-width="1"/>
              <line id="Line_932" data-name="Line 932" y1="6.83" transform="translate(496.296 419.532)" fill="none" stroke="#fff" stroke-linecap="round" stroke-linejoin="round" stroke-width="1"/>
              <line id="Line_933" data-name="Line 933" x1="4.83" y2="4.83" transform="translate(480.526 452.773)" fill="none" stroke="#fff" stroke-linecap="round" stroke-linejoin="round" stroke-width="1"/>
              <line id="Line_934" data-name="Line 934" x1="4.83" y2="4.83" transform="translate(507.235 426.064)" fill="none" stroke="#fff" stroke-linecap="round" stroke-linejoin="round" stroke-width="1"/>
              <line id="Line_935" data-name="Line 935" x2="4.83" y2="4.83" transform="translate(480.526 426.064)" fill="none" stroke="#fff" stroke-linecap="round" stroke-linejoin="round" stroke-width="1"/>
              <path id="Path_8303" data-name="Path 8303" d="M534.37,458.7a7.937,7.937,0,0,1-.452,2.648h-46.7a8,8,0,0,1,7.543-10.643c.212,0,.421.009.628.025a8,8,0,0,1,10.559-7.509,12.127,12.127,0,0,1,21.6,7.571A7.994,7.994,0,0,1,534.37,458.7Z" fill="none" stroke="#fff" stroke-linecap="round" stroke-linejoin="round" stroke-width="1"/>
              <path id="Path_8304" data-name="Path 8304" d="M656.722,51.641c1.6-.312,3.238-.43,4.538.458,4.014,2.741.352,9.861,5.924,11.6a8.311,8.311,0,0,0,4.245-.078c4.3-.952,8.362-2.942,12.751-3.483,3.925-.484,6.922.887,10.1,2.645" fill="none" stroke="#fff" stroke-linecap="round" stroke-linejoin="round" stroke-width="1"/>
              <path id="Path_8305" data-name="Path 8305" d="M696.967,69.52a2.209,2.209,0,0,1-1.01.24h-46.87a2.273,2.273,0,0,1-2.02-3.29l8.33-16.46a2.276,2.276,0,0,1,2.03-1.25h9.02c2.36,3.71,4.74,6.53,5.69,6.53s3.32-2.82,5.68-6.53h9.81a2.265,2.265,0,0,1,2.02,1.25l8.33,16.46A2.266,2.266,0,0,1,696.967,69.52Z" fill="none" stroke="#fff" stroke-linecap="round" stroke-linejoin="round" stroke-width="1"/>
              <path id="Path_8306" data-name="Path 8306" d="M672.137,22.26a11.781,11.781,0,0,0-11.78,11.78c0,3.26,2.4,8.57,5.07,13.07.34.56.68,1.12,1.02,1.65,2.36,3.71,4.74,6.53,5.69,6.53s3.32-2.82,5.68-6.53c3.05-4.78,6.09-11.06,6.09-14.72A11.779,11.779,0,0,0,672.137,22.26Zm-.02,17.78a6.216,6.216,0,0,1-6.39-6.05,1.92,1.92,0,0,1,0-.24,6.186,6.186,0,0,1,5.95-6.43,3.843,3.843,0,0,1,.48,0,6.36,6.36,0,1,1-.04,12.72Z" fill="none" stroke="#fff" stroke-linecap="round" stroke-linejoin="round" stroke-width="1"/>
              <path id="Path_8307" data-name="Path 8307" d="M128.69,337.052a2.446,2.446,0,0,0,.147-.885c0-.268-.085-.5-.466-.469-.173.013-.355-.15-.538-.222-.152-.058-.326-.167-.465-.136-.391.083-.768.226-1.162.35-.244-.343-.586-.454-.735-.178-.237.436-.518.7-1.053.592.086-.529.568-.952.3-1.564-.175-.4-.363-.524-.756-.323-.138.071-.334.168-.447.121a4.146,4.146,0,0,1-.676-.451,1.917,1.917,0,0,1-.374.368,2.408,2.408,0,0,0-1.018,1.529,18.419,18.419,0,0,0-.524,2.448,7.542,7.542,0,0,0,.485,5.087c.078.155.2.364.336.4a1.1,1.1,0,0,1,.812.9,30.82,30.82,0,0,0,2.221,5.357,6.158,6.158,0,0,0,.572.93c.278.369.6.7.9,1.062.446.549.852,1.137,1.333,1.653a6.458,6.458,0,0,0,1.023.747c.036-.038.071-.077.106-.115a11.843,11.843,0,0,1-.642-1.042c-.152-.315-.226-.654-.646-.744-.094-.02-.163-.206-.226-.325q-.332-.631-.649-1.27c-.051-.1-.138-.284-.108-.309.258-.214.1-.4,0-.6a.387.387,0,0,1,0-.316c.468-.719.412-1.015-.264-1.55a1.955,1.955,0,0,1-.341-.476,2.82,2.82,0,0,0,.677.1c.08-.006.225-.25.2-.346a4.8,4.8,0,0,1,.073-2.066,1.527,1.527,0,0,0-.088-.8,1.082,1.082,0,0,1,.059-1.091c.236-.36.549-.669.821-1.006.121-.15.306-.312.316-.477.051-.878.057-1.759.075-2.638a2.389,2.389,0,0,1,.019-.764c.2-.506.5-.969.7-1.472" fill="none" stroke="#fff" stroke-linecap="round" stroke-linejoin="round" stroke-width="1"/>
              <path id="Path_8308" data-name="Path 8308" d="M155.092,340.373a.691.691,0,0,0-.6.719,1.541,1.541,0,0,1-.175.732,1.5,1.5,0,0,0-.376,1.089c.03.245.071.614.226.693.337.172.5-.169.623-.431.37-.769.7-1.555,1.1-2.309a1.565,1.565,0,0,0,.172-1.155,3.426,3.426,0,0,1-.971.662" fill="none" stroke="#fff" stroke-linecap="round" stroke-linejoin="round" stroke-width="1"/>
              <path id="Path_8309" data-name="Path 8309" d="M140.625,320.808a20.509,20.509,0,1,0,20.51,20.51,20.509,20.509,0,0,0-20.51-20.51" fill="none" stroke="#fff" stroke-linecap="round" stroke-linejoin="round" stroke-width="1"/>
              <path id="Path_8310" data-name="Path 8310" d="M149.576,359.791a20.208,20.208,0,0,1-2.027.868" fill="none" stroke="#fff" stroke-linecap="round" stroke-linejoin="round" stroke-width="1"/>
              <path id="Path_8311" data-name="Path 8311" d="M139.117,321.59a.96.96,0,0,1,.976.218c.085.094.344.029.665.044l-.363-.246.015-.106,1.95.091c0,.047.005.094.008.142l-2.088.319c.241.355.185.519-.183.543-.411.029-.825.037-1.238.026s-.425.32-.5.583c-.014.044.093.18.146.181a2.786,2.786,0,0,0,2.267-.438c.312-.283.888-.279,1.349-.39a1.315,1.315,0,0,1,.451-.023,4.5,4.5,0,0,1,.878.145c.537.171,1.059.387,1.627.51l-1.3-.572c.022-.06.043-.121.064-.181a13.166,13.166,0,0,1,1.615.57c.5.252.945.624,1.474.869-.076-.1-.15-.2-.24-.318.454-.206.771.049,1.1.247h.006c.07.048.138.1.207.153a3.51,3.51,0,0,0,.668.444,6.232,6.232,0,0,0,1.174.347c.51.119.674.356.587.985-.526-.125-1.058-.223-1.57-.383-.537-.169-1.053-.4-1.585-.6-.217-.078-.469-.225-.592.161-.018.054-.241.083-.355.059a4.748,4.748,0,0,1-.6-.212c-.669-.24-1.34-.478-2.028-.723.1-.436-.149-.481-.51-.517a26.86,26.86,0,0,0-3.507.179,5.5,5.5,0,0,0-1.565.51.059.059,0,0,0-.035.027c-.488.988-1.745,1.042-2.329,1.929-.211.32-.511.527-.4,1.014a2.242,2.242,0,0,1-.2.991c-.061.207-.273.389,0,.6.044.034-.019.209-.024.245a5.285,5.285,0,0,1,.954.9,3.739,3.739,0,0,0,1.776,1.181c.12.061.321-.032.482-.065a2.63,2.63,0,0,1,.932-.18,4.222,4.222,0,0,0,1.961-.282c.592-.144,1.224-.3,1.6.448.041.081.266.072.407.1a2.383,2.383,0,0,1,.811.18.846.846,0,0,1,.277.633c0,.321-.171.64-.182.964a1.152,1.152,0,0,0,.233.611c.271.4.6.765.861,1.175a2.2,2.2,0,0,1,.241.735,10.83,10.83,0,0,1,.2,1.328c.011.155-.124.326-.206.482-.1.2-.245.381-.334.587a2.04,2.04,0,0,0,.082,2,4.915,4.915,0,0,1,.462,2.2,8.885,8.885,0,0,0,.309,1.123,3.371,3.371,0,0,1,.288,1.721c-.086.322.183.566.524.572a7.83,7.83,0,0,0,1.176.04,2.692,2.692,0,0,0,1.229-.388c.688-.521,1.49-.988,1.652-1.975.015-.094.189-.2.309-.235.558-.185.676-.352.712-.932.021-.348-.243-.774.247-1.017a8.459,8.459,0,0,1,1-.52.927.927,0,0,0,.681-.808,17.558,17.558,0,0,0-.135-2.844,2.054,2.054,0,0,1,.48-1.18,7.12,7.12,0,0,1,1.341-1.074,2.409,2.409,0,0,0,.768-1.96.545.545,0,0,0-.342-.3,2.233,2.233,0,0,1-1.753-1.226,13.018,13.018,0,0,0-1.64-2.059c-.6-.764-1.17-1.548-1.747-2.329-.043-.059-.03-.159-.044-.24.09.014.217-.006.265.046.572.628,1.134,1.267,1.7,1.9a6.162,6.162,0,0,1,.627.724c.349.549.673,1.117.974,1.694.155.3.3.516.681.483.508-.044,1.018-.041,1.524-.089a.474.474,0,0,0,.232-.768c-.368-.455-.633-1.014-1.287-1.208-.254-.077-.444-.391-.647-.613-.342-.372-.671-.757-1-1.136l.094-.1a2.819,2.819,0,0,1,.31.222c.7.654,1.35,1.365,2.1,1.956" fill="none" stroke="#fff" stroke-linecap="round" stroke-linejoin="round" stroke-width="1"/>
              <path id="Path_8312" data-name="Path 8312" d="M147.549,360.659a2.7,2.7,0,0,1-.306.093.129.129,0,0,1-.054-.025,14.629,14.629,0,0,0,1.414-1.168.942.942,0,0,0,.155-.813c-.056-.161-.443-.279-.686-.286a13.949,13.949,0,0,0-1.472.1c-.015-.036-.029-.071-.043-.107.3-.129.6-.273.915-.382.336-.118.472-.27.2-.588a.519.519,0,0,1-.159-.319c.066-.543-.224-.437-.557-.349a3.726,3.726,0,0,1-.588.031c-.329.035-.657.084-.985.126-.088.011-.23.055-.255.019-.259-.362-.6-.14-.912-.158-.421-.024-.839-.114-1.261-.134a15.469,15.469,0,0,0-1.723-.012c-.481.031-.954.194-1.435.212-.383.016-.47.229-.53.514a.783.783,0,0,1-.523.669.791.791,0,0,0-.355.27c-.161.217-.119.367.189.379a3.571,3.571,0,0,1,.471.083l-.571.822c-.017.024-.036.066-.054.067-.634.029-1.269.093-1.9.061-.241-.013-.469-.248-.731-.4.3-.162.247-.366.018-.58a5.3,5.3,0,0,0-1.818-.967l-.08.147a3.6,3.6,0,0,0,.638.307c.654.173.586.662.314,1.063-.247.366-.2.5.237.618.138.038.322.09.384.2a2.739,2.739,0,0,0,2.36,1.137c.091.011.183.011.274.02a3.872,3.872,0,0,0,1.317-.328c.123-.031.25-.132.361-.115.588.094,1.177.19,1.753.337a3.4,3.4,0,0,1,.723.383c-.009.051-.019.1-.029.155a5.43,5.43,0,0,1-.739.127" fill="none" stroke="#fff" stroke-linecap="round" stroke-linejoin="round" stroke-width="1"/>
              <line id="Line_936" data-name="Line 936" x1="6.827" y2="11.232" transform="translate(216.896 338.545)" fill="none" stroke="#fff" stroke-linecap="round" stroke-linejoin="round" stroke-width="1"/>
              <line id="Line_937" data-name="Line 937" x1="11.803" y1="3.594" transform="translate(227.787 336.634)" fill="none" stroke="#fff" stroke-linecap="round" stroke-linejoin="round" stroke-width="1"/>
              <line id="Line_938" data-name="Line 938" x1="6.417" y2="12.396" transform="translate(243.124 325.916)" fill="none" stroke="#fff" stroke-linecap="round" stroke-linejoin="round" stroke-width="1"/>
              <path id="Path_8313" data-name="Path 8313" d="M218.134,351.875a2.443,2.443,0,1,1-2.466-2.42h.024a2.431,2.431,0,0,1,2.442,2.42" fill="none" stroke="#fff" stroke-linecap="round" stroke-linejoin="round" stroke-width="1"/>
              <path id="Path_8314" data-name="Path 8314" d="M227.787,336.08a2.443,2.443,0,1,1-2.466-2.42h.024a2.431,2.431,0,0,1,2.442,2.42" fill="none" stroke="#fff" stroke-linecap="round" stroke-linejoin="round" stroke-width="1"/>
              <path id="Path_8315" data-name="Path 8315" d="M244.459,340.467a2.443,2.443,0,1,1-2.466-2.42h.024a2.431,2.431,0,0,1,2.442,2.42" fill="none" stroke="#fff" stroke-linecap="round" stroke-linejoin="round" stroke-width="1"/>
              <path id="Path_8316" data-name="Path 8316" d="M253.234,323.8a2.443,2.443,0,1,1-2.466-2.42h.024a2.431,2.431,0,0,1,2.442,2.42" fill="none" stroke="#fff" stroke-linecap="round" stroke-linejoin="round" stroke-width="1"/>
              <line id="Line_939" data-name="Line 939" y2="36.855" transform="translate(209.844 324.404)" fill="none" stroke="#fff" stroke-linecap="round" stroke-linejoin="round" stroke-width="1"/>
              <line id="Line_940" data-name="Line 940" x2="49.14" transform="translate(205.896 357.311)" fill="none" stroke="#fff" stroke-linecap="round" stroke-linejoin="round" stroke-width="1"/>
              <path id="Path_8317" data-name="Path 8317" d="M424.281,341.006h-9.676c-4.225,0-4.545,3.249-4.545,3.249s-.328-3.249-4.554-3.249h-9.747a9.423,9.423,0,0,1,9.277-7.741h9.977A9.42,9.42,0,0,1,424.281,341.006Z" fill="none" stroke="#fff" stroke-linecap="round" stroke-linejoin="round" stroke-width="1"/>
              <path id="Path_8318" data-name="Path 8318" d="M410.021,317.243a7.554,7.554,0,1,1-7.554,7.554A7.554,7.554,0,0,1,410.021,317.243Z" fill="none" stroke="#fff" stroke-linecap="round" stroke-linejoin="round" stroke-width="1"/>
              <path id="Path_8319" data-name="Path 8319" d="M391.152,337.615l.009.044-.027-.035Z" fill="none" stroke="#fff" stroke-linecap="round" stroke-linejoin="round" stroke-width="1"/>
              <path id="Path_8320" data-name="Path 8320" d="M428.888,337.9,427.743,348a2.954,2.954,0,0,0-.684-.08c-1.917,0-3.471,1.838-3.471,4.119a3.9,3.9,0,0,0,3.223,4.11l-.409,3.6s-.284,2.823-3.95,2.823H414c-3.666,0-3.95,2.814-3.95,2.814s-.009-.062-.027-.16c-.124-.6-.781-2.654-3.914-2.654h-8.46c-3.657,0-3.941-2.823-3.941-2.823l-.063-.115h.009l-.4-3.533a3.956,3.956,0,0,0,2.938-4.066c0-2.281-1.553-4.119-3.471-4.119a2.971,2.971,0,0,0-.4.027l-1.163-10.289.053.1s.32,3.249,4.545,3.249h9.747c4.225,0,4.554,3.249,4.554,3.249s.32-3.249,4.545-3.249h9.756C428.054,341.006,428.764,338.52,428.888,337.9Z" fill="none" stroke="#fff" stroke-linecap="round" stroke-linejoin="round" stroke-width="1"/>
              <path id="Path_8321" data-name="Path 8321" d="M391.152,337.615l.009.044-.027-.035Z" fill="none" stroke="#fff" stroke-linecap="round" stroke-linejoin="round" stroke-width="1"/>
              <path id="Path_8322" data-name="Path 8322" d="M396.194,352.04a3.956,3.956,0,0,1-2.938,4.066,2.752,2.752,0,0,1-.533.053c-1.917,0-3.471-1.847-3.471-4.119a3.923,3.923,0,0,1,3.072-4.092,2.971,2.971,0,0,1,.4-.027C394.641,347.921,396.194,349.759,396.194,352.04Z" fill="none" stroke="#fff" stroke-linecap="round" stroke-linejoin="round" stroke-width="1"/>
              <path id="Path_8323" data-name="Path 8323" d="M430.53,352.04c0,2.272-1.553,4.119-3.471,4.119a2.3,2.3,0,0,1-.249-.009,3.9,3.9,0,0,1-3.221-4.11c0-2.281,1.553-4.119,3.47-4.119a2.939,2.939,0,0,1,.683.08A4,4,0,0,1,430.53,352.04Z" fill="none" stroke="#fff" stroke-linecap="round" stroke-linejoin="round" stroke-width="1"/>
              <line id="Line_941" data-name="Line 941" y1="0.089" transform="translate(410.025 365.231)" fill="none" stroke="#fff" stroke-linecap="round" stroke-linejoin="round" stroke-width="1"/>
              <line id="Line_942" data-name="Line 942" y1="20.976" transform="translate(410.025 344.255)" fill="none" stroke="#fff" stroke-linecap="round" stroke-linejoin="round" stroke-width="1"/>
              <path id="Path_8324" data-name="Path 8324" d="M418.463,69.51a80.757,80.757,0,0,1,15.794-20.968c-.16-.15-6.307,5.043-8.954,8.027-2.67,3.01-5,6.321-7.568,9.614a8.158,8.158,0,0,1-2.134-7.81c.863-4.066,3.457-7.04,6.617-9.48,5.766-4.451,12.456-6.167,19.645-6.111,2.052.016,2.174.175,1.835,2.219a77.958,77.958,0,0,1-1.855,9.616c-1.863,6.236-6.2,10.156-12.417,11.959C425.882,67.606,422.292,68.491,418.463,69.51Z" fill="none" stroke="#fff" stroke-linecap="round" stroke-linejoin="round" stroke-width="1"/>
              <path id="Path_8325" data-name="Path 8325" d="M407.168,41.342c2.715,3.259,5.4,6.547,8.165,9.761a1.96,1.96,0,0,1,.268,2.759l-.035.041c-.677,1.1-1.807,3.251-4.118,1.953-5.58-3.134-8.232-8.26-9.431-14.278-.409-2.051-.516-4.162-.814-6.692,2.092.609,3.719,1,5.291,1.554a25.963,25.963,0,0,1,11.7,7.841c1.938,2.335,1.666,4.658-.851,6.766C414.073,47.721,406.889,41.01,407.168,41.342Z" fill="none" stroke="#fff" stroke-linecap="round" stroke-linejoin="round" stroke-width="1"/>
              <path id="Path_8326" data-name="Path 8326" d="M423.824,45.791c.436-4.953.652-10.088,1.066-14.781,0,0-1.991,9.494-2.982,14.233a6.975,6.975,0,0,1-2.858-5.551c-.456-5.428,1.643-9.913,5.308-13.755,1.071-1.123,2.274-2.122,3.686-3.427,2.291,7.149,4.142,13.843-.069,20.513a5.3,5.3,0,0,1-4.151,2.768" fill="none" stroke="#fff" stroke-linecap="round" stroke-linejoin="round" stroke-width="1"/>
              <path id="Path_8327" data-name="Path 8327" d="M146.578,45.305l8.532-14.4,8.534,14.4" fill="none" stroke="#fff" stroke-linecap="round" stroke-linejoin="round" stroke-width="1"/>
              <path id="Path_8328" data-name="Path 8328" d="M120.144,45.305l8.532-14.4,8.525,14.4" fill="none" stroke="#fff" stroke-linecap="round" stroke-linejoin="round" stroke-width="1"/>
              <path id="Path_8329" data-name="Path 8329" d="M129.574,31.5H140.42V60.017H126.692a2.177,2.177,0,0,0-2.2,2.147h-2.2a2.15,2.15,0,1,0,0,4.3h39.207a2.15,2.15,0,1,0,0-4.3H157.9a2.177,2.177,0,0,0-2.2-2.147H143.356V31.5H154.2" fill="none" stroke="#fff" stroke-linecap="round" stroke-linejoin="round" stroke-width="1"/>
              <path id="Path_8330" data-name="Path 8330" d="M156,31.481a.715.715,0,0,0-.162-1.415H143.357V26.983a1.469,1.469,0,0,0-2.936,0v3.083H127.937a.715.715,0,0,0-.159,1.415" fill="none" stroke="#fff" stroke-linecap="round" stroke-linejoin="round" stroke-width="1"/>
              <path id="Path_8331" data-name="Path 8331" d="M117.195,44.877a.663.663,0,0,0-.183.171.647.647,0,0,0-.087.6,11.794,11.794,0,0,0,22.045,0,.644.644,0,0,0-.086-.6.683.683,0,0,0-.174-.165Z" fill="none" stroke="#fff" stroke-linecap="round" stroke-linejoin="round" stroke-width="1"/>
              <path id="Path_8332" data-name="Path 8332" d="M145.074,44.877a.663.663,0,0,0-.183.171.647.647,0,0,0-.087.6,11.794,11.794,0,0,0,22.045,0,.644.644,0,0,0-.086-.6.682.682,0,0,0-.174-.165Z" fill="none" stroke="#fff" stroke-linecap="round" stroke-linejoin="round" stroke-width="1"/>
              <path id="Path_8333" data-name="Path 8333" d="M519.646,44.086A13.466,13.466,0,0,1,506.18,57.552" fill="none" stroke="#fff" stroke-linecap="round" stroke-linejoin="round" stroke-width="1"/>
              <path id="Path_8334" data-name="Path 8334" d="M506.179,57.553a13.466,13.466,0,0,1-13.466-13.466" fill="none" stroke="#fff" stroke-linecap="round" stroke-linejoin="round" stroke-width="1"/>
              <line id="Line_943" data-name="Line 943" y2="7.695" transform="translate(506.179 57.553)" fill="none" stroke="#fff" stroke-linecap="round" stroke-linejoin="round" stroke-width="1"/>
              <line id="Line_944" data-name="Line 944" x1="7.695" transform="translate(498.484 65.246)" fill="none" stroke="#fff" stroke-linecap="round" stroke-linejoin="round" stroke-width="1"/>
              <line id="Line_945" data-name="Line 945" x2="7.695" transform="translate(506.179 65.246)" fill="none" stroke="#fff" stroke-linecap="round" stroke-linejoin="round" stroke-width="1"/>
              <path id="Path_8335" data-name="Path 8335" d="M506.179,49.857a5.771,5.771,0,0,1-5.771-5.771V32.542a5.771,5.771,0,0,1,11.542,0V44.084a5.771,5.771,0,0,1-5.77,5.773Z" fill="none" stroke="#fff" stroke-linecap="round" stroke-linejoin="round" stroke-width="1"/>
              <path id="Path_8336" data-name="Path 8336" d="M610.293,42.281c0-9.227-9.947-16.707-22.216-16.707s-22.216,7.48-22.216,16.707c0,7.983,7.446,14.653,17.4,16.309v7.856l7.591-7.592c10.96-1.028,19.442-8.053,19.442-16.573" fill="none" stroke="#fff" stroke-linecap="round" stroke-linejoin="round" stroke-width="1"/>
              <path id="Path_8337" data-name="Path 8337" d="M573.077,39.476c0-2.68,1.579-4.755,4.881-5.966l.632,1.124c-2.183,1.124-2.843,2.306-2.987,3.2l.172.144a2.537,2.537,0,0,1,.46-.057,2.306,2.306,0,0,1,2.244,2.366c0,.018,0,.035,0,.053a2.487,2.487,0,0,1-2.5,2.421,2.969,2.969,0,0,1-2.916-3.021c0-.088.007-.176.016-.264m6.948,0c0-2.68,1.579-4.755,4.88-5.966l.632,1.124c-2.182,1.124-2.842,2.306-2.986,3.2l.172.144a2.538,2.538,0,0,1,.459-.057,2.307,2.307,0,0,1,2.243,2.369l0,.051a2.487,2.487,0,0,1-2.5,2.421,2.969,2.969,0,0,1-2.916-3.021c0-.088.007-.176.016-.264" fill="none" stroke="#fff" stroke-linecap="round" stroke-linejoin="round" stroke-width="1"/>
              <path id="Path_8338" data-name="Path 8338" d="M603.077,46.544c0,2.68-1.579,4.755-4.881,5.966l-.632-1.124c2.183-1.124,2.843-2.306,2.987-3.2l-.172-.144a2.538,2.538,0,0,1-.46.057,2.306,2.306,0,0,1-2.244-2.366c0-.018,0-.035,0-.053a2.487,2.487,0,0,1,2.5-2.421,2.969,2.969,0,0,1,2.916,3.021c0,.088-.007.176-.016.264m-6.948,0c0,2.68-1.579,4.755-4.881,5.966l-.632-1.124c2.182-1.124,2.842-2.306,2.986-3.2l-.172-.144a2.538,2.538,0,0,1-.459.057,2.307,2.307,0,0,1-2.242-2.37l0-.05a2.487,2.487,0,0,1,2.5-2.421,2.968,2.968,0,0,1,2.916,3.021c0,.088-.007.176-.016.264" fill="none" stroke="#fff" stroke-linecap="round" stroke-linejoin="round" stroke-width="1"/>
              <path id="Path_8339" data-name="Path 8339" d="M142.2,121.142a.4.4,0,0,0-.634,0c-1.947,2.507-12.219,16.009-12.219,22.417a12.539,12.539,0,1,0,25.072,0C154.423,137.151,144.151,123.649,142.2,121.142Z" fill="none" stroke="#fff" stroke-linecap="round" stroke-linejoin="round" stroke-width="1"/>
              <path id="Path_8340" data-name="Path 8340" d="M150.423,143.559a8.694,8.694,0,0,1-8.536,8.824" fill="none" stroke="#fff" stroke-linecap="round" stroke-linejoin="round" stroke-width="1"/>
              <path id="Path_8341" data-name="Path 8341" d="M227.393,152.174l-9.161-6.206a6.943,6.943,0,0,0-1.368-.718,3.226,3.226,0,0,0-1.411-.237c-2.243.178-2.485,2.553-1.951,3.683" fill="none" stroke="#fff" stroke-linecap="round" stroke-linejoin="round" stroke-width="1"/>
              <path id="Path_8342" data-name="Path 8342" d="M235.537,152.253H218.676l-9.183-6.313a2.223,2.223,0,0,0-.8-.343,2.119,2.119,0,0,0-.757-.03,3.005,3.005,0,0,0-2.426,3.128,4.845,4.845,0,0,0,1.7,2.145l10.973,7.374a7.1,7.1,0,0,0,2.195.984l21.292,5.46a12.929,12.929,0,0,0,3.206.4h12.267a3.777,3.777,0,0,0,3.776-3.776v-3.28a3.777,3.777,0,0,0-3.776-3.776H253.96L243.1,147.156a3.685,3.685,0,0,0-2.009-.6H226.329a.947.947,0,0,0-.945.886l-.126,1.961c0,1.572,1.7,2.846,3.267,2.846" fill="none" stroke="#fff" stroke-linecap="round" stroke-linejoin="round" stroke-width="1"/>
              <path id="Path_8343" data-name="Path 8343" d="M223.719,137.343a7.356,7.356,0,0,0,7.37-7.343c0-3.666-6.034-11.406-7.186-12.833a.233.233,0,0,0-.368,0c-1.152,1.427-7.186,9.167-7.186,12.833A7.356,7.356,0,0,0,223.719,137.343Z" fill="none" stroke="#fff" stroke-linecap="round" stroke-linejoin="round" stroke-width="1"/>
              <path id="Path_8344" data-name="Path 8344" d="M325.139,168.636a4.922,4.922,0,0,1-1.235-.158c-11.235-2.919-18.717-14.091-17.4-25.987a23.52,23.52,0,0,1,20.657-20.658,23.925,23.925,0,0,1,2.6-.142,23.528,23.528,0,0,1,15.731,5.976l.347.31a23.484,23.484,0,0,1-7.466,39.055.314.314,0,0,1-.063.006.175.175,0,0,1-.166-.244.176.176,0,0,1,.1-.1,23.124,23.124,0,0,0,7.009-38.768,22.749,22.749,0,0,0-15.4-5.888,24.3,24.3,0,0,0-2.648.145,23.162,23.162,0,0,0-20.341,20.339c-1.274,11.526,6.254,22.773,17.137,25.6a4.53,4.53,0,0,0,1.13.144,4.474,4.474,0,0,0,2.756-.945,4.525,4.525,0,0,0,1.77-3.6V156.07l-1.552-.316a8.676,8.676,0,0,1-6.92-8.476v-4.057h-1.939a.177.177,0,0,1-.179-.178.179.179,0,0,1,.179-.179h6.175v-8.293a.178.178,0,1,1,.357,0v8.293h8.114v-8.293a.179.179,0,1,1,.358,0v8.293h6.175a.178.178,0,1,1,0,.357h-1.939v4.057a8.68,8.68,0,0,1-6.921,8.476l-1.551.317v7.661a4.872,4.872,0,0,1-1.907,3.881A4.8,4.8,0,0,1,325.139,168.636Z" fill="none" stroke="#fff" stroke-linecap="round" stroke-linejoin="round" stroke-width="1"/>
              <path id="Path_8345" data-name="Path 8345" d="M586.773,149.2l13.13,13.13a5.972,5.972,0,0,0,8.445-8.445L595.112,140.65m-8.339,8.551,5.621-6.824a5.472,5.472,0,0,1,2.721-1.725m-8.342,8.549-10.484,12.732a5.739,5.739,0,1,1-8.873-7.28,5.663,5.663,0,0,1,.8-.8l15.4-12.679m11.5-.525a10.837,10.837,0,0,1,3.925-.315,10.134,10.134,0,0,0,10.1-14.27l-7.378,7.38a6.765,6.765,0,0,1-5.067-5.067L604.076,121a10.136,10.136,0,0,0-14.27,10.1c.2,2.423-.16,5.1-2.036,6.644l-.229.191m-3.93,3.237-9.25-9.25h-3.173l-5.068-8.446L569.5,120.1l8.445,5.068v3.173l9.594,9.594m-3.93,3.236,3.93-3.236m14.9,18.481-5.912-5.912m-24.51,7.6h.018v.018h-.018Z" fill="none" stroke="#fff" stroke-linecap="round" stroke-linejoin="round" stroke-width="1"/>
              <path id="Path_8346" data-name="Path 8346" d="M410.383,121.923V139m-4.27-4.01,1.251.938a5.325,5.325,0,0,0,6.037,0,2.674,2.674,0,0,0,0-4.528,5.06,5.06,0,0,0-3.018-.938,4.605,4.605,0,0,1-2.851-.938,2.761,2.761,0,0,1,0-4.528,4.8,4.8,0,0,1,5.7,0l.59.47m9.367,5a12.807,12.807,0,1,1-12.807-12.807A12.807,12.807,0,0,1,423.19,130.461Z" fill="none" stroke="#fff" stroke-linecap="round" stroke-linejoin="round" stroke-width="1"/>
              <path id="Path_8347" data-name="Path 8347" d="M429.887,123.284H441.68a6.844,6.844,0,0,1,6.844,6.843v7.406" fill="none" stroke="#fff" stroke-linecap="round" stroke-linejoin="round" stroke-width="1"/>
              <path id="Path_8348" data-name="Path 8348" d="M436.276,116.808l-7.027,6.567,6.575,7.033" fill="none" stroke="#fff" stroke-linecap="round" stroke-linejoin="round" stroke-width="1"/>
              <path id="Path_8349" data-name="Path 8349" d="M447.991,160.246v-11.2a2.7,2.7,0,0,0-1.351-2.34l-9.7-5.6a2.7,2.7,0,0,0-2.7,0l-9.7,5.6a2.7,2.7,0,0,0-1.352,2.34v11.2a2.7,2.7,0,0,0,1.352,2.341l9.7,5.6a2.707,2.707,0,0,0,2.7,0l9.7-5.6A2.7,2.7,0,0,0,447.991,160.246Z" fill="none" stroke="#fff" stroke-linecap="round" stroke-linejoin="round" stroke-width="1"/>
              <line id="Line_946" data-name="Line 946" x1="11.545" y2="6.666" transform="translate(435.59 148.229)" fill="none" stroke="#fff" stroke-linecap="round" stroke-linejoin="round" stroke-width="1"/>
              <line id="Line_947" data-name="Line 947" x2="11.545" y2="6.666" transform="translate(424.045 148.229)" fill="none" stroke="#fff" stroke-linecap="round" stroke-linejoin="round" stroke-width="1"/>
              <line id="Line_948" data-name="Line 948" y1="13.331" transform="translate(435.59 154.895)" fill="none" stroke="#fff" stroke-linecap="round" stroke-linejoin="round" stroke-width="1"/>
              <path id="Path_8350" data-name="Path 8350" d="M415.16,161.75H403.367a6.844,6.844,0,0,1-6.844-6.843V147.5" fill="none" stroke="#fff" stroke-linecap="round" stroke-linejoin="round" stroke-width="1"/>
              <path id="Path_8351" data-name="Path 8351" d="M408.771,168.225l7.027-6.567-6.575-7.033" fill="none" stroke="#fff" stroke-linecap="round" stroke-linejoin="round" stroke-width="1"/>
              <path id="Path_8352" data-name="Path 8352" d="M487.9,143.174l23.268-24.93-4.986,18.282h18.282l-23.268,24.93,4.986-18.282Z" fill="none" stroke="#fff" stroke-linecap="round" stroke-linejoin="round" stroke-width="1"/>
              <path id="Path_8353" data-name="Path 8353" d="M182.465,445.671v9.4a2.426,2.426,0,0,1-2.426,2.426h-13.4a2.37,2.37,0,0,1-.839-.155,2,2,0,0,0,1.551-1.943V442.177l4.579-3.256a2.426,2.426,0,0,1,2.819,0l6.695,4.77A2.44,2.44,0,0,1,182.465,445.671Z" fill="none" stroke="#fff" stroke-linecap="round" stroke-linejoin="round" stroke-width="1"/>
              <path id="Path_8354" data-name="Path 8354" d="M167.35,430.619v24.775a2,2,0,0,1-1.551,1.943,2.421,2.421,0,0,1-.438.046H147.793a1.989,1.989,0,0,1-1.99-1.989V430.619a1.994,1.994,0,0,1,1.99-1.989h17.568A1.993,1.993,0,0,1,167.35,430.619Z" fill="none" stroke="#fff" stroke-linecap="round" stroke-linejoin="round" stroke-width="1"/>
              <path id="Path_8355" data-name="Path 8355" d="M139.673,457.282H122.8a2.337,2.337,0,0,1-2.337-2.337V429.088a2.947,2.947,0,0,1,1.625-2.634l16.676-8.365a2.224,2.224,0,0,1,3.223,1.566,2.354,2.354,0,0,1,.021.317v34.973A2.337,2.337,0,0,1,139.673,457.282Z" fill="none" stroke="#fff" stroke-linecap="round" stroke-linejoin="round" stroke-width="1"/>
              <line id="Line_949" data-name="Line 949" x2="3.738" transform="translate(150.631 434.62)" fill="none" stroke="#fff" stroke-linecap="round" stroke-linejoin="round" stroke-width="1" stroke-dasharray="6.071 6.071"/>
              <line id="Line_950" data-name="Line 950" x2="3.738" transform="translate(150.631 440.508)" fill="none" stroke="#fff" stroke-linecap="round" stroke-linejoin="round" stroke-width="1" stroke-dasharray="6.071 6.071"/>
              <line id="Line_951" data-name="Line 951" x2="3.738" transform="translate(150.631 446.396)" fill="none" stroke="#fff" stroke-linecap="round" stroke-linejoin="round" stroke-width="1" stroke-dasharray="6.071 6.071"/>
              <line id="Line_952" data-name="Line 952" x2="3.738" transform="translate(150.631 452.283)" fill="none" stroke="#fff" stroke-linecap="round" stroke-linejoin="round" stroke-width="1" stroke-dasharray="6.071 6.071"/>
              <line id="Line_953" data-name="Line 953" x2="3.738" transform="translate(158.787 434.62)" fill="none" stroke="#fff" stroke-linecap="round" stroke-linejoin="round" stroke-width="1" stroke-dasharray="6.071 6.071"/>
              <line id="Line_954" data-name="Line 954" x2="3.738" transform="translate(158.787 440.508)" fill="none" stroke="#fff" stroke-linecap="round" stroke-linejoin="round" stroke-width="1" stroke-dasharray="6.071 6.071"/>
              <line id="Line_955" data-name="Line 955" x2="3.738" transform="translate(158.787 446.396)" fill="none" stroke="#fff" stroke-linecap="round" stroke-linejoin="round" stroke-width="1" stroke-dasharray="6.071 6.071"/>
              <line id="Line_956" data-name="Line 956" x2="3.738" transform="translate(158.787 452.283)" fill="none" stroke="#fff" stroke-linecap="round" stroke-linejoin="round" stroke-width="1" stroke-dasharray="6.071 6.071"/>
              <line id="Line_957" data-name="Line 957" x2="12.982" transform="translate(124.883 431.084)" fill="none" stroke="#fff" stroke-linecap="round" stroke-linejoin="round" stroke-width="1"/>
              <line id="Line_958" data-name="Line 958" x2="12.982" transform="translate(124.883 436.879)" fill="none" stroke="#fff" stroke-linecap="round" stroke-linejoin="round" stroke-width="1"/>
              <line id="Line_959" data-name="Line 959" x2="12.982" transform="translate(124.883 442.674)" fill="none" stroke="#fff" stroke-linecap="round" stroke-linejoin="round" stroke-width="1"/>
              <line id="Line_960" data-name="Line 960" x2="12.982" transform="translate(124.883 448.469)" fill="none" stroke="#fff" stroke-linecap="round" stroke-linejoin="round" stroke-width="1"/>
              <path id="Path_8356" data-name="Path 8356" d="M570.468,253.5l7.184-.65m11.7-35.12a19.123,19.123,0,0,0-11.7,35.12m0,0,1.3-6.669m27.121-25.409H598.5m0,0A19.123,19.123,0,0,1,586.8,255.9m11.7-35.123-1.312,6.751" fill="none" stroke="#fff" stroke-linecap="round" stroke-linejoin="round" stroke-width="1"/>
              <circle id="Ellipse_218" data-name="Ellipse 218" cx="4" cy="4" r="4" transform="translate(656.96 213.496)" fill="none" stroke="#fff" stroke-linecap="round" stroke-linejoin="round" stroke-width="1"/>
              <path id="Path_8357" data-name="Path 8357" d="M670.83,223.248l-.87.248h-9.024c-9.045,0-12.908,7.033-12.975,13.819a2.1,2.1,0,0,0,1.685,2.157,2,2,0,0,0,2.314-1.976c0-3.2,1.681-7.465,4-8.751V242.6c0,.029.007.057.009.086s-.009.057-.009.087v16.62a2.074,2.074,0,0,0,1.664,2.079,2,2,0,0,0,2.336-1.972v-15h2v14.893a2.074,2.074,0,0,0,1.664,2.079,2,2,0,0,0,2.336-1.972V242.769c0-.03-.007-.058-.009-.087s.009-.057.009-.086V227.5h2.194a12.34,12.34,0,0,0,2.676-.294" fill="none" stroke="#fff" stroke-linecap="round" stroke-linejoin="round" stroke-width="1"/>
              <path id="Path_8358" data-name="Path 8358" d="M693.783,212.13H674.135a3.305,3.305,0,0,0-3.3,3.3v7.813l5.967-1.7a2,2,0,0,1,2.437,1.7,2.08,2.08,0,0,1-1.645,2.223l-5.9,1.509c-.284.085-.572.159-.861.223v5.406a3.306,3.306,0,0,0,3.3,3.306h19.648a3.306,3.306,0,0,0,3.3-3.306V215.435A3.305,3.305,0,0,0,693.783,212.13Z" fill="none" stroke="#fff" stroke-linecap="round" stroke-linejoin="round" stroke-width="1"/>
              <path id="Path_8359" data-name="Path 8359" d="M670.83,227.2q.434-.1.861-.223l5.9-1.509a2.079,2.079,0,0,0,1.644-2.223,2,2,0,0,0-2.436-1.7l-5.967,1.7" fill="none" stroke="#fff" stroke-linecap="round" stroke-linejoin="round" stroke-width="1"/>
              <line id="Line_961" data-name="Line 961" y2="6.165" transform="translate(253.714 256.926)" fill="none" stroke="#fff" stroke-linecap="round" stroke-linejoin="round" stroke-width="1"/>
              <line id="Line_962" data-name="Line 962" y2="30.169" transform="translate(233.371 232.917)" fill="none" stroke="#fff" stroke-linecap="round" stroke-linejoin="round" stroke-width="1"/>
              <line id="Line_963" data-name="Line 963" y2="8.826" transform="translate(213.239 254.26)" fill="none" stroke="#fff" stroke-linecap="round" stroke-linejoin="round" stroke-width="1"/>
              <path id="Path_8360" data-name="Path 8360" d="M241.627,229.521a7.321,7.321,0,0,0,.771-3.257,8.051,8.051,0,0,0-4.783-7.139,4.852,4.852,0,0,0,1.409-3.378c0-2.878-2.636-5.212-5.889-5.212s-5.889,2.334-5.889,5.212a4.855,4.855,0,0,0,1.458,3.425,8.036,8.036,0,0,0-4.695,7.092,7.33,7.33,0,0,0,.873,3.444,10.562,10.562,0,0,0-4.09,8.2c0,6.148,5.632,11.131,12.579,11.131s12.578-4.983,12.578-11.131A10.612,10.612,0,0,0,241.627,229.521Z" fill="none" stroke="#fff" stroke-linecap="round" stroke-linejoin="round" stroke-width="1"/>
              <path id="Path_8361" data-name="Path 8361" d="M259.612,240.877a6.132,6.132,0,1,0-11.288-.421,8.995,8.995,0,1,0,11.288.421Z" fill="none" stroke="#fff" stroke-linecap="round" stroke-linejoin="round" stroke-width="1"/>
              <path id="Path_8362" data-name="Path 8362" d="M220.145,244.649a1.941,1.941,0,0,1-1.614.919H207.945a1.92,1.92,0,0,1-1.614-.925,2.673,2.673,0,0,1-.153-2.629l2.17-4.373a1.344,1.344,0,0,0,.958.4h7.864a1.364,1.364,0,0,0,.958-.4l2.17,4.367A2.672,2.672,0,0,1,220.145,244.649Z" fill="none" stroke="#fff" stroke-linecap="round" stroke-linejoin="round" stroke-width="1"/>
              <path id="Path_8363" data-name="Path 8363" d="M218.129,237.647a1.366,1.366,0,0,1-.958.4h-7.865a1.347,1.347,0,0,1-.958-.4,1.959,1.959,0,0,1-.354-2.244l3.932-7.916a1.418,1.418,0,0,1,2.625,0l3.932,7.916A1.957,1.957,0,0,1,218.129,237.647Z" fill="none" stroke="#fff" stroke-linecap="round" stroke-linejoin="round" stroke-width="1"/>
              <path id="Path_8364" data-name="Path 8364" d="M220.1,253.957H206.374c-2.045,0-3.329-2.562-2.323-4.635l2.28-4.679a1.92,1.92,0,0,0,1.614.925h10.586a1.941,1.941,0,0,0,1.614-.919l2.28,4.673C223.431,251.4,222.147,253.957,220.1,253.957Z" fill="none" stroke="#fff" stroke-linecap="round" stroke-linejoin="round" stroke-width="1"/>
              <line id="Line_964" data-name="Line 964" x1="3.443" y2="3.443" transform="translate(233.774 241.604)" fill="none" stroke="#fff" stroke-linecap="round" stroke-linejoin="round" stroke-width="1"/>
              <line id="Line_965" data-name="Line 965" x2="2.634" y2="2.634" transform="translate(230.545 235.714)" fill="none" stroke="#fff" stroke-linecap="round" stroke-linejoin="round" stroke-width="1"/>
              <line id="Line_966" data-name="Line 966" y1="2.428" x2="4.425" transform="translate(344.932 35.613)" fill="none" stroke="#fff" stroke-linecap="round" stroke-linejoin="round" stroke-width="1"/>
              <path id="Path_8365" data-name="Path 8365" d="M349.568,35.379a2.8,2.8,0,1,0,1.109-3.807A2.806,2.806,0,0,0,349.568,35.379Z" fill="none" stroke="#fff" stroke-linecap="round" stroke-linejoin="round" stroke-width="1"/>
              <line id="Line_967" data-name="Line 967" x1="0.016" y1="0.028" transform="translate(339.09 36.147)" fill="none" stroke="#fff" stroke-linecap="round" stroke-linejoin="round" stroke-width="1"/>
              <line id="Line_968" data-name="Line 968" x2="1.403" y2="2.561" transform="translate(337.687 33.586)" fill="none" stroke="#fff" stroke-linecap="round" stroke-linejoin="round" stroke-width="1"/>
              <path id="Path_8366" data-name="Path 8366" d="M337.122,28.438h-.005a2.589,2.589,0,1,0,.005,0Z" fill="none" stroke="#fff" stroke-linecap="round" stroke-linejoin="round" stroke-width="1"/>
              <path id="Path_8367" data-name="Path 8367" d="M309.764,27.5a2.772,2.772,0,0,0,.675-1.805v0a2.837,2.837,0,1,0-.675,1.809" fill="none" stroke="#fff" stroke-linecap="round" stroke-linejoin="round" stroke-width="1"/>
              <line id="Line_969" data-name="Line 969" x1="2.857" y1="2.25" transform="translate(328.567 55.905)" fill="none" stroke="#fff" stroke-linecap="round" stroke-linejoin="round" stroke-width="1"/>
              <line id="Line_970" data-name="Line 970" y1="2.515" transform="translate(319.707 39.122)" fill="none" stroke="#fff" stroke-linecap="round" stroke-linejoin="round" stroke-width="1"/>
              <line id="Line_971" data-name="Line 971" x1="7.096" y2="4.139" transform="translate(330.103 42.239)" fill="none" stroke="#fff" stroke-linecap="round" stroke-linejoin="round" stroke-width="1"/>
              <line id="Line_972" data-name="Line 972" y1="5.783" x2="5.783" transform="translate(310.303 56.204)" fill="none" stroke="#fff" stroke-linecap="round" stroke-linejoin="round" stroke-width="1"/>
              <line id="Line_973" data-name="Line 973" x2="3.519" y2="3.519" transform="translate(309.764 27.496)" fill="none" stroke="#fff" stroke-linecap="round" stroke-linejoin="round" stroke-width="1"/>
              <line id="Line_974" data-name="Line 974" x1="1.971" y2="4.374" transform="translate(320.724 24.12)" fill="none" stroke="#fff" stroke-linecap="round" stroke-linejoin="round" stroke-width="1"/>
              <line id="Line_975" data-name="Line 975" x2="2.19" y2="2.478" transform="translate(337.726 63.524)" fill="none" stroke="#fff" stroke-linecap="round" stroke-linejoin="round" stroke-width="1"/>
              <path id="Path_8368" data-name="Path 8368" d="M339.948,70.115h0a2.8,2.8,0,1,0,.243-3.958A2.8,2.8,0,0,0,339.948,70.115Z" fill="none" stroke="#fff" stroke-linecap="round" stroke-linejoin="round" stroke-width="1"/>
              <line id="Line_976" data-name="Line 976" x1="0.735" y2="3.042" transform="translate(333.548 64.452)" fill="none" stroke="#fff" stroke-linecap="round" stroke-linejoin="round" stroke-width="1"/>
              <path id="Path_8369" data-name="Path 8369" d="M332.263,73.259a2.8,2.8,0,1,0-2.067-3.383A2.8,2.8,0,0,0,332.263,73.259Z" fill="none" stroke="#fff" stroke-linecap="round" stroke-linejoin="round" stroke-width="1"/>
              <line id="Line_977" data-name="Line 977" x1="0.069" y1="0.002" transform="translate(339.134 59.735)" fill="none" stroke="#fff" stroke-linecap="round" stroke-linejoin="round" stroke-width="1"/>
              <line id="Line_978" data-name="Line 978" x2="2.882" y2="0.066" transform="translate(339.203 59.737)" fill="none" stroke="#fff" stroke-linecap="round" stroke-linejoin="round" stroke-width="1"/>
              <path id="Path_8370" data-name="Path 8370" d="M346.825,61.891h0a2.8,2.8,0,1,0-3.964-.092A2.8,2.8,0,0,0,346.826,61.89Z" fill="none" stroke="#fff" stroke-linecap="round" stroke-linejoin="round" stroke-width="1"/>
              <path id="Path_8371" data-name="Path 8371" d="M339.2,59.737h0a4.191,4.191,0,0,1-1.073,3.411,2.506,2.506,0,0,1-.4.373l0,0" fill="none" stroke="#fff" stroke-linecap="round" stroke-linejoin="round" stroke-width="1"/>
              <path id="Path_8372" data-name="Path 8372" d="M331.424,58.155a3.821,3.821,0,0,1,.507-.688h.01a4.2,4.2,0,0,1,7.262,2.27" fill="none" stroke="#fff" stroke-linecap="round" stroke-linejoin="round" stroke-width="1"/>
              <path id="Path_8373" data-name="Path 8373" d="M334.283,64.452a4.192,4.192,0,0,0,3.443-.928" fill="none" stroke="#fff" stroke-linecap="round" stroke-linejoin="round" stroke-width="1"/>
              <path id="Path_8374" data-name="Path 8374" d="M334.283,64.452h0a4.214,4.214,0,0,1-2.856-6.3h0" fill="none" stroke="#fff" stroke-linecap="round" stroke-linejoin="round" stroke-width="1"/>
              <path id="Path_8375" data-name="Path 8375" d="M310.3,61.987a2.793,2.793,0,1,0,.98,2.115v0a2.785,2.785,0,0,0-.98-2.113" fill="none" stroke="#fff" stroke-linecap="round" stroke-linejoin="round" stroke-width="1"/>
              <path id="Path_8376" data-name="Path 8376" d="M328.567,55.9h0a8.685,8.685,0,0,0,2.319-5.922,8.577,8.577,0,0,0-.783-3.605" fill="none" stroke="#fff" stroke-linecap="round" stroke-linejoin="round" stroke-width="1"/>
              <path id="Path_8377" data-name="Path 8377" d="M328.567,55.9a8.709,8.709,0,0,1-12.482.3" fill="none" stroke="#fff" stroke-linecap="round" stroke-linejoin="round" stroke-width="1"/>
              <path id="Path_8378" data-name="Path 8378" d="M319.707,41.637a8.85,8.85,0,0,1,2.479-.364,8.694,8.694,0,0,1,7.915,5.1l0,.007" fill="none" stroke="#fff" stroke-linecap="round" stroke-linejoin="round" stroke-width="1"/>
              <path id="Path_8379" data-name="Path 8379" d="M319.707,41.637h0A8.711,8.711,0,0,0,316.083,56.2l0,0" fill="none" stroke="#fff" stroke-linecap="round" stroke-linejoin="round" stroke-width="1"/>
              <path id="Path_8380" data-name="Path 8380" d="M313.283,31.015l0,0a5.6,5.6,0,0,1,5-3.076,5.459,5.459,0,0,1,2.434.556l0,0" fill="none" stroke="#fff" stroke-linecap="round" stroke-linejoin="round" stroke-width="1"/>
              <path id="Path_8381" data-name="Path 8381" d="M313.283,31.015a5.612,5.612,0,1,0,7.441-2.521" fill="none" stroke="#fff" stroke-linecap="round" stroke-linejoin="round" stroke-width="1"/>
              <path id="Path_8382" data-name="Path 8382" d="M337.2,42.239v0a4.162,4.162,0,0,0,2.377,1.8,4.2,4.2,0,1,0-.487-7.9" fill="none" stroke="#fff" stroke-linecap="round" stroke-linejoin="round" stroke-width="1"/>
              <path id="Path_8383" data-name="Path 8383" d="M339.091,36.147h0a4.2,4.2,0,0,0-1.889,6.091" fill="none" stroke="#fff" stroke-linecap="round" stroke-linejoin="round" stroke-width="1"/>
              <path id="Path_8384" data-name="Path 8384" d="M322.7,24.12a2.777,2.777,0,0,0,3.728-2.634v0A2.8,2.8,0,1,0,322.7,24.12" fill="none" stroke="#fff" stroke-linecap="round" stroke-linejoin="round" stroke-width="1"/>
              <path id="Path_8385" data-name="Path 8385" d="M328.434,450.251a13.549,13.549,0,1,1,.993-1.3" fill="none" stroke="#fff" stroke-linecap="round" stroke-linejoin="round" stroke-width="1"/>
              <path id="Path_8386" data-name="Path 8386" d="M317.787,427.858a13.524,13.524,0,1,1-.925,1.674" fill="none" stroke="#fff" stroke-linecap="round" stroke-linejoin="round" stroke-width="1"/>
              <line id="Line_979" data-name="Line 979" y2="10.425" transform="translate(318.16 454.947)" fill="none" stroke="#fff" stroke-linecap="round" stroke-linejoin="round" stroke-width="1"/>
              <line id="Line_980" data-name="Line 980" x2="9.197" transform="translate(313.561 461.362)" fill="none" stroke="#fff" stroke-linecap="round" stroke-linejoin="round" stroke-width="1"/>
              <line id="Line_981" data-name="Line 981" y1="6.623" x2="6.623" transform="translate(338.615 418.829)" fill="none" stroke="#fff" stroke-linecap="round" stroke-linejoin="round" stroke-width="1"/>
              <path id="Path_8387" data-name="Path 8387" d="M345.238,425.42v-6.59h-6.59" fill="none" stroke="#fff" stroke-linecap="round" stroke-linejoin="round" stroke-width="1"/>
              <path id="Path_8388" data-name="Path 8388" d="M424.014,234.518c8.9,2.681,11.871-4.955,13.538-9.851,1.387-4.075,4.88-8.816,2.786-8.82-4-.008-10.662.66-15.606,4.617-4.821,3.858-6.017,8.821-2.6,13.11a26.967,26.967,0,0,1,6.919-7.729" fill="none" stroke="#fff" stroke-linecap="round" stroke-linejoin="round" stroke-width="1"/>
              <path id="Path_8389" data-name="Path 8389" d="M412.31,236.963a12.8,12.8,0,0,1,5.553,2.71c1.241-3.273-1.052-8.638-10.614-8.631a34.283,34.283,0,0,0-6,.589,21.952,21.952,0,0,1,4.184,4.308c2.635,3.483,6.338,7.687,11.483,4.675" fill="none" stroke="#fff" stroke-linecap="round" stroke-linejoin="round" stroke-width="1"/>
              <path id="Path_8390" data-name="Path 8390" d="M420.179,257.587c-.292-19.689,6.811-29.22,8.641-31.143" fill="none" stroke="#fff" stroke-linecap="round" stroke-linejoin="round" stroke-width="1"/>
              <path id="Path_8391" data-name="Path 8391" d="M413.838,237.354c-.065-.015,6.486,2.478,7.065,8.583" fill="none" stroke="#fff" stroke-linecap="round" stroke-linejoin="round" stroke-width="1"/>
              <line id="Line_982" data-name="Line 982" x2="9.065" transform="translate(415.46 257.779)" fill="none" stroke="#fff" stroke-linecap="round" stroke-linejoin="round" stroke-width="1"/>
              <path id="Path_8392" data-name="Path 8392" d="M502.493,232.173a5.966,5.966,0,0,0-.923.929c-.859,1.079-1.782,2.176-2.719,3.188a20.624,20.624,0,0,1-13.128-21.839A20.637,20.637,0,0,0,502.493,232.173Z" fill="none" stroke="#fff" stroke-linecap="round" stroke-linejoin="round" stroke-width="1"/>
              <path id="Path_8393" data-name="Path 8393" d="M526.795,217.015a20.627,20.627,0,0,1-13.288,19.275c-.937-1.012-1.86-2.109-2.718-3.188a5.928,5.928,0,0,0-.924-.929,20.637,20.637,0,0,0,16.77-17.721A20.631,20.631,0,0,1,526.795,217.015Z" fill="none" stroke="#fff" stroke-linecap="round" stroke-linejoin="round" stroke-width="1"/>
              <path id="Path_8394" data-name="Path 8394" d="M492.373,234.1c2.7,1.336,3.675,4.86,3.675,4.86s-3.4,1.359-6.093.024-3.675-4.86-3.675-4.86S489.676,232.76,492.373,234.1Z" fill="none" stroke="#fff" stroke-linecap="round" stroke-linejoin="round" stroke-width="1"/>
              <path id="Path_8395" data-name="Path 8395" d="M519.985,234.1c-2.7,1.336-3.675,4.86-3.675,4.86s3.4,1.359,6.093.024,3.675-4.86,3.675-4.86S522.682,232.76,519.985,234.1Z" fill="none" stroke="#fff" stroke-linecap="round" stroke-linejoin="round" stroke-width="1"/>
              <path id="Path_8396" data-name="Path 8396" d="M516.31,238.956c-4.6,3.353-7.371,20.218-7.371,20.218H503.42s-2.771-16.865-7.371-20.218a26.858,26.858,0,0,0,2.8-2.666c.937-1.012,1.86-2.109,2.719-3.188a5.884,5.884,0,0,1,9.219,0c.859,1.079,1.782,2.176,2.719,3.188A26.855,26.855,0,0,0,516.31,238.956Z" fill="none" stroke="#fff" stroke-linecap="round" stroke-linejoin="round" stroke-width="1"/>
              <path id="Path_8397" data-name="Path 8397" d="M524.787,328.836a5.577,5.577,0,0,0-1.824.036c-.784-.456-4.026.594-4.145,1.45.465-.06,2.533-.866,3.228-.5l-.123.7.607-.623c1.7-.162,4.733,2.641,4.828,4.01-3.986-.047-7.258,5.832-11.408,6.212-3.469-.918-6.4.462-10.088.833-3.684-1.192-7.9-1.2-11.156,1.509-.919.766-3.185.589-2.684.949.531.382-2.04-1.158-2.032-1.542-.016.777,1.2,1.9,2.061,2.639a1.5,1.5,0,0,1,.505,1.419c-.813,4.115-.216,9.316-.538,13.56.138,1.232-.621,4.594-.4,5.532.213-.061-.363,2.077.582,2,1.482.1.934-.237.959-1.378a8.951,8.951,0,0,0-.024-2.282c.26-2.492,1.468-6.943,3.526-8.364,2.836,2.338-.3,3.233.723,4.753a54.9,54.9,0,0,0,.763,6.011c-.179.552.187.51.4.813-.117,1.118,1.007,1.593,1.936,1.064.346-.2-.409-1.275-.625-1.7a22.748,22.748,0,0,1-.545-5.551c1-2.423,2.87-2.948,5.471-2.8,1.847.1,4.685-1.4,5.649.326a5.311,5.311,0,0,0,.731,2.772c.527,1.275-.619,3.735-.155,5.005.539.512.3,1.038.364,2.064-.046.621,1.8.73,1.848.32-1.331-3.308.227-6.7-.129-10.083.064-.878,1.714-.225,1.836.243.6,1.954,1.286,4.468.806,6.565a2.475,2.475,0,0,0,.069,1.14c.1,0,.274-.2.35-.031.376.451-.486,1.624.631,1.8,2.176.773,1.03-1,.846-2.073-.467-2.266-.133-4.414-.4-6.767-.109-1.619,1.723-3.1,2.5-4.16.181-3.058,1.206-6.87,3.763-9.1,1.311-1.037,2.245-3.982,3.684-3.138,0,.532,3.373,3.23,3.713,3.474a1.884,1.884,0,0,1-.176-2.224l-.085-.1c1.122-.771,2.986,1.1,3.354-.938,1.647-1.71-1.111-3.289-1.709-4.862-.234-1.091-1.052-1.576-1.1-2.665-1.207-1.275.436-1.487,1.023-2.578-.531-.176-2.916,1.976-2.038.407.055-.347-3.78-4.582-5.376-4.144m-32.7,15.259Z" fill="none" stroke="#fff" stroke-linecap="round" stroke-linejoin="round" stroke-width="1"/>
              <path id="Path_8398" data-name="Path 8398" d="M680.35,125.993c-2.4,3.31-6.8,4.221-6.8,4.221s-.528-4.452,1.874-7.764,6.8-4.221,6.8-4.221.523,4.454-1.874,7.764" fill="none" stroke="#fff" stroke-linecap="round" stroke-linejoin="round" stroke-width="1"/>
              <path id="Path_8399" data-name="Path 8399" d="M680.35,136.792c-2.4,3.307-6.8,4.219-6.8,4.219s-.528-4.455,1.874-7.762,6.8-4.221,6.8-4.221.523,4.45-1.874,7.764" fill="none" stroke="#fff" stroke-linecap="round" stroke-linejoin="round" stroke-width="1"/>
              <path id="Path_8400" data-name="Path 8400" d="M680.35,147.673c-2.4,3.31-6.8,4.221-6.8,4.221s-.528-4.457,1.874-7.762,6.8-4.221,6.8-4.221.523,4.452-1.874,7.762" fill="none" stroke="#fff" stroke-linecap="round" stroke-linejoin="round" stroke-width="1"/>
              <path id="Path_8401" data-name="Path 8401" d="M680.35,158.514c-2.4,3.31-6.8,4.221-6.8,4.221s-.528-4.452,1.874-7.762,6.8-4.225,6.8-4.225.523,4.454-1.874,7.766" fill="none" stroke="#fff" stroke-linecap="round" stroke-linejoin="round" stroke-width="1"/>
              <path id="Path_8402" data-name="Path 8402" d="M664.7,125.993c2.4,3.31,6.8,4.221,6.8,4.221s.527-4.452-1.87-7.764-6.8-4.221-6.8-4.221-.518,4.454,1.874,7.764" fill="none" stroke="#fff" stroke-linecap="round" stroke-linejoin="round" stroke-width="1"/>
              <path id="Path_8403" data-name="Path 8403" d="M664.7,136.792c2.4,3.307,6.8,4.219,6.8,4.219s.527-4.455-1.87-7.762-6.8-4.221-6.8-4.221-.518,4.45,1.874,7.764" fill="none" stroke="#fff" stroke-linecap="round" stroke-linejoin="round" stroke-width="1"/>
              <path id="Path_8404" data-name="Path 8404" d="M664.7,147.673c2.4,3.31,6.8,4.221,6.8,4.221s.527-4.457-1.87-7.762-6.8-4.221-6.8-4.221-.518,4.452,1.874,7.762" fill="none" stroke="#fff" stroke-linecap="round" stroke-linejoin="round" stroke-width="1"/>
              <path id="Path_8405" data-name="Path 8405" d="M664.7,158.514c2.4,3.31,6.8,4.221,6.8,4.221s.527-4.452-1.87-7.762-6.8-4.225-6.8-4.225-.518,4.454,1.874,7.766" fill="none" stroke="#fff" stroke-linecap="round" stroke-linejoin="round" stroke-width="1"/>
              <path id="Path_8406" data-name="Path 8406" d="M675.633,113.73c0,3.985-3.111,7.416-3.111,7.416s-3.111-3.431-3.107-7.416,3.107-7.016,3.107-7.016,3.111,3.032,3.111,7.016" fill="none" stroke="#fff" stroke-linecap="round" stroke-linejoin="round" stroke-width="1"/>
              <line id="Line_983" data-name="Line 983" y1="9.95" transform="translate(672.524 165.226)" fill="none" stroke="#fff" stroke-linecap="round" stroke-linejoin="round" stroke-width="1"/>
              <path id="Path_8407" data-name="Path 8407" d="M626.12,334.726l-25.745-3.778a.37.37,0,0,0-.188.031L588.671,309.8a.411.411,0,0,0-.528-.171l-.12.056-.122.055a.387.387,0,0,0-.2.5l9.411,23.016-13.034,20.775a.383.383,0,0,0,.112.526l.11.074.111.073a.417.417,0,0,0,.548-.086l13.429-17.312-1.6,31.84H601.4l-1.031-34.385,25.662.991a.4.4,0,0,0,.417-.355l.01-.13.01-.13A.393.393,0,0,0,626.12,334.726Z" fill="none" stroke="#fff" stroke-linecap="round" stroke-linejoin="round" stroke-width="1"/>
              <line id="Line_984" data-name="Line 984" x1="23.908" transform="translate(587.503 369.159)" fill="none" stroke="#fff" stroke-linecap="round" stroke-linejoin="round" stroke-width="1"/>
              <path id="Path_8408" data-name="Path 8408" d="M427.833,436.8a.869.869,0,1,1-.869-.869A.869.869,0,0,1,427.833,436.8Z" fill="none" stroke="#fff" stroke-linecap="round" stroke-linejoin="round" stroke-width="1"/>
              <path id="Path_8409" data-name="Path 8409" d="M413.677,432.575s-2.119-3.459-1.085-4c.871-.456,6.309-.069,7.541,3.167" fill="none" stroke="#fff" stroke-linecap="round" stroke-linejoin="round" stroke-width="1"/>
              <path id="Path_8410" data-name="Path 8410" d="M415.494,449.8c-.126.5-.109.982.3,1.195.734.384,4.7.163,6.673-1.85" fill="none" stroke="#fff" stroke-linecap="round" stroke-linejoin="round" stroke-width="1"/>
              <path id="Path_8411" data-name="Path 8411" d="M422.466,449.144c6.328-2.085,9.185-8.239,10.461-11.033-2.457-2.981-6.527-7.395-15.212-6.154-5.884.841-10.722,5.256-13.519,10.864a17.219,17.219,0,0,0-8.437-5.3,18.434,18.434,0,0,1,2.214,6.985,20.092,20.092,0,0,1-.753,7.95,21.207,21.207,0,0,0,7.126-8.252,16.841,16.841,0,0,0,11.148,5.592,6.36,6.36,0,0,1,.727-1.6,6.36,6.36,0,0,0-.727,1.6" fill="none" stroke="#fff" stroke-linecap="round" stroke-linejoin="round" stroke-width="1"/>
              <path id="Path_8412" data-name="Path 8412" d="M579.066,462.739v-17.8l8.282,3.967v-3.967l7.658,3.967.06-3.967,7.941,4.142" fill="none" stroke="#fff" stroke-linecap="round" stroke-linejoin="round" stroke-width="1"/>
              <path id="Path_8413" data-name="Path 8413" d="M609.744,434.233h1.04l2.73,28.506" fill="none" stroke="#fff" stroke-linecap="round" stroke-linejoin="round" stroke-width="1"/>
              <line id="Line_985" data-name="Line 985" x1="2.97" y2="26.369" transform="translate(602.134 436.37)" fill="none" stroke="#fff" stroke-linecap="round" stroke-linejoin="round" stroke-width="1"/>
              <line id="Line_986" data-name="Line 986" x2="2.853" transform="translate(583.771 453.442)" fill="none" stroke="#fff" stroke-linecap="round" stroke-linejoin="round" stroke-width="1"/>
              <line id="Line_987" data-name="Line 987" x2="2.853" transform="translate(583.771 458.516)" fill="none" stroke="#fff" stroke-linecap="round" stroke-linejoin="round" stroke-width="1"/>
              <line id="Line_988" data-name="Line 988" x2="2.853" transform="translate(589.997 453.442)" fill="none" stroke="#fff" stroke-linecap="round" stroke-linejoin="round" stroke-width="1"/>
              <line id="Line_989" data-name="Line 989" x2="2.853" transform="translate(589.997 458.516)" fill="none" stroke="#fff" stroke-linecap="round" stroke-linejoin="round" stroke-width="1"/>
              <line id="Line_990" data-name="Line 990" x2="2.853" transform="translate(596.09 453.442)" fill="none" stroke="#fff" stroke-linecap="round" stroke-linejoin="round" stroke-width="1"/>
              <line id="Line_991" data-name="Line 991" x2="2.853" transform="translate(596.09 458.516)" fill="none" stroke="#fff" stroke-linecap="round" stroke-linejoin="round" stroke-width="1"/>
              <path id="Path_8414" data-name="Path 8414" d="M610.674,431.587a4.289,4.289,0,0,1-.93,2.645l-4.4.018-.24,2.12a5.978,5.978,0,0,1-4.18-1.655,6.738,6.738,0,0,1-5.29,2.4c-3.54,0-6.41-2.473-6.41-5.532a1.1,1.1,0,0,1,.01-.181,6.4,6.4,0,0,1-3.95-2.568,4.36,4.36,0,0,1-3.7,1.9,3.7,3.7,0,1,1,0-7.317,4.583,4.583,0,0,1,3.06,1.129,6.352,6.352,0,0,1,6.19-4.05,7.239,7.239,0,0,1,3.05.664,7.613,7.613,0,0,1,4.78-1.638c3.86,0,6.99,2.7,6.99,6.032a5.254,5.254,0,0,1-.15,1.259C608.384,426.994,610.674,429.053,610.674,431.587Z" fill="none" stroke="#fff" stroke-linecap="round" stroke-linejoin="round" stroke-width="1"/>
              <path id="Path_8415" data-name="Path 8415" d="M692.3,446.975H657.355c-1.564,0-2.36-.93-1.776-2.078l9.375-18.441a4.66,4.66,0,0,1,3.889-2.078h34.949c1.564,0,2.36.931,1.776,2.078L696.193,444.9A4.66,4.66,0,0,1,692.3,446.975Z" fill="none" stroke="#fff" stroke-linecap="round" stroke-linejoin="round" stroke-width="1"/>
              <line id="Line_992" data-name="Line 992" x2="40.614" transform="translate(662.529 431.226)" fill="none" stroke="#fff" stroke-linecap="round" stroke-linejoin="round" stroke-width="1"/>
              <line id="Line_993" data-name="Line 993" x2="40.3" transform="translate(658.753 439.271)" fill="none" stroke="#fff" stroke-linecap="round" stroke-linejoin="round" stroke-width="1"/>
              <line id="Line_994" data-name="Line 994" x1="11.504" y2="22.629" transform="translate(674.813 424.378)" fill="none" stroke="#fff" stroke-linecap="round" stroke-linejoin="round" stroke-width="1"/>
              <line id="Line_995" data-name="Line 995" y2="8.471" transform="translate(680.237 447.008)" fill="none" stroke="#fff" stroke-linecap="round" stroke-linejoin="round" stroke-width="1"/>
              <line id="Line_996" data-name="Line 996" x2="15.374" transform="translate(672.886 456.043)" fill="none" stroke="#fff" stroke-linecap="round" stroke-linejoin="round" stroke-width="1"/>
              <line id="Line_997" data-name="Line 997" y1="4.383" transform="translate(666.087 409.414)" fill="none" stroke="#fff" stroke-linecap="round" stroke-linejoin="round" stroke-width="1"/>
              <line id="Line_998" data-name="Line 998" x1="4.383" transform="translate(651.122 424.378)" fill="none" stroke="#fff" stroke-linecap="round" stroke-linejoin="round" stroke-width="1"/>
              <line id="Line_999" data-name="Line 999" x1="4.383" transform="translate(676.669 424.378)" fill="none" stroke="#fff" stroke-linecap="round" stroke-linejoin="round" stroke-width="1"/>
              <line id="Line_1000" data-name="Line 1000" x1="3.099" y2="3.099" transform="translate(655.505 431.86)" fill="none" stroke="#fff" stroke-linecap="round" stroke-linejoin="round" stroke-width="1"/>
              <line id="Line_1001" data-name="Line 1001" x1="3.099" y2="3.099" transform="translate(673.569 413.797)" fill="none" stroke="#fff" stroke-linecap="round" stroke-linejoin="round" stroke-width="1"/>
              <line id="Line_1002" data-name="Line 1002" x2="3.099" y2="3.099" transform="translate(655.505 413.797)" fill="none" stroke="#fff" stroke-linecap="round" stroke-linejoin="round" stroke-width="1"/>
              <path id="Path_8416" data-name="Path 8416" d="M661.148,430a7.483,7.483,0,1,1,12.24-7.266" fill="none" stroke="#fff" stroke-linecap="round" stroke-linejoin="round" stroke-width="1"/>
              <line id="Line_1003" data-name="Line 1003" y2="14.609" transform="translate(662.367 346.191)" fill="none" stroke="#fff" stroke-linecap="round" stroke-linejoin="round" stroke-width="1"/>
              <line id="Line_1004" data-name="Line 1004" y2="14.609" transform="translate(671.09 346.191)" fill="none" stroke="#fff" stroke-linecap="round" stroke-linejoin="round" stroke-width="1"/>
              <line id="Line_1005" data-name="Line 1005" y2="14.609" transform="translate(680.182 346.191)" fill="none" stroke="#fff" stroke-linecap="round" stroke-linejoin="round" stroke-width="1"/>
              <line id="Line_1006" data-name="Line 1006" y2="14.609" transform="translate(688.904 346.191)" fill="none" stroke="#fff" stroke-linecap="round" stroke-linejoin="round" stroke-width="1"/>
              <line id="Line_1007" data-name="Line 1007" x2="43.172" transform="translate(654.05 366.004)" fill="none" stroke="#fff" stroke-linecap="round" stroke-linejoin="round" stroke-width="1"/>
              <line id="Line_1008" data-name="Line 1008" x2="30.721" transform="translate(660.276 363.722)" fill="none" stroke="#fff" stroke-linecap="round" stroke-linejoin="round" stroke-width="1"/>
              <path id="Path_8417" data-name="Path 8417" d="M675.636,327.827,654.3,343.269h42.674Z" fill="none" stroke="#fff" stroke-linecap="round" stroke-linejoin="round" stroke-width="1"/>
              <path id="Path_8418" data-name="Path 8418" d="M677.531,337.679a1.9,1.9,0,1,1-1.9-1.895A1.9,1.9,0,0,1,677.531,337.679Z" fill="none" stroke="#fff" stroke-linecap="round" stroke-linejoin="round" stroke-width="1"/>
              <path id="Path_8419" data-name="Path 8419" d="M233.2,459.744a22.074,22.074,0,1,1,22.075-22.074A22.1,22.1,0,0,1,233.2,459.744Z" fill="none" stroke="#fff" stroke-linecap="round" stroke-linejoin="round" stroke-width="1"/>
              <circle id="Ellipse_219" data-name="Ellipse 219" cx="12.075" cy="12.075" r="12.075" transform="translate(221.127 425.594)" fill="none" stroke="#fff" stroke-linecap="round" stroke-linejoin="round" stroke-width="1"/>
              <path id="Path_8420" data-name="Path 8420" d="M345.692,234.485l-8.026-13.9a6.737,6.737,0,0,0-11.668,0l-8.026,13.9" fill="none" stroke="#fff" stroke-linecap="round" stroke-linejoin="round" stroke-width="1"/>
              <path id="Path_8421" data-name="Path 8421" d="M313.592,242.071l-7.535,13.05a6.737,6.737,0,0,0,5.834,10.105h15.561" fill="none" stroke="#fff" stroke-linecap="round" stroke-linejoin="round" stroke-width="1"/>
              <path id="Path_8422" data-name="Path 8422" d="M336.211,265.225h15.561a6.736,6.736,0,0,0,5.834-10.1l-7.535-13.051" fill="none" stroke="#fff" stroke-linecap="round" stroke-linejoin="round" stroke-width="1"/>
              <path id="Path_8423" data-name="Path 8423" d="M340.741,269.594l-4.529-4.446,4.291-4.292" fill="none" stroke="#fff" stroke-linecap="round" stroke-linejoin="round" stroke-width="1"/>
              <path id="Path_8424" data-name="Path 8424" d="M307.921,243.153l6.12-1.681,1.553,5.867" fill="none" stroke="#fff" stroke-linecap="round" stroke-linejoin="round" stroke-width="1"/>
              <path id="Path_8425" data-name="Path 8425" d="M347.1,228.267l-1.273,6.218-5.934-1.273" fill="none" stroke="#fff" stroke-linecap="round" stroke-linejoin="round" stroke-width="1"/>
            </g>
          </g>
        </g>
      </g>
    </g>
  </g>
</svg>
