<svg xmlns="http://www.w3.org/2000/svg" width="73.305" height="54.219" viewBox="0 0 73.305 54.219">
  <path id="Path_8586" data-name="Path 8586" d="M7.84-105.153c7.939,0,14.695-6.418,14.695-14.188,0-8.783-6.587-14.188-13.175-14.188a14.783,14.783,0,0,0-2.7.338l-1.013-.845c.845-5.236,4.729-12.161,17.566-18.749l-3.716-6.587C.07-152.278-9.22-140.117-9.22-124.409-9.22-112.078-1.281-105.153,7.84-105.153Zm-40.875,0c7.939,0,14.695-6.418,14.695-14.188,0-8.783-6.587-14.188-13.175-14.188a14.783,14.783,0,0,0-2.7.338l-1.013-.845c.845-5.236,4.729-12.161,17.566-18.749l-3.716-6.587C-40.805-152.278-50.1-140.117-50.1-124.409-50.1-112.078-42.156-105.153-33.036-105.153Z" transform="translate(50.095 159.372)" fill="#ce539e"/>
</svg>
