<?xml version="1.0" encoding="UTF-8"?>
<svg xmlns="http://www.w3.org/2000/svg" xmlns:xlink="http://www.w3.org/1999/xlink" version="1.1" viewBox="0 0 1636 440">
  <defs>
    <style>
      .cls-1 {
        fill: #f99d3c;
      }

      .cls-2 {
        fill: #f15f4b;
      }

      .cls-3 {
        fill: url(#linear-gradient);
      }

      .cls-4, .cls-5 {
        isolation: isolate;
      }

      .cls-6 {
        fill: #c9c9c9;
      }

      .cls-7 {
        fill: #e28cbb;
      }

      .cls-8 {
        fill: #9293c8;
      }

      .cls-9 {
        fill: #fff;
      }

      .cls-10 {
        fill: #91c846;
      }

      .cls-5 {
        mix-blend-mode: multiply;
        opacity: .4;
      }

      .cls-11 {
        fill: #08bcc1;
      }

      .cls-12 {
        fill: #4763a9;
      }
    </style>
    <linearGradient id="linear-gradient" x1="801.8" y1="11.1" x2="801.8" y2="179.4" gradientTransform="translate(0 440) scale(1 -1)" gradientUnits="userSpaceOnUse">
      <stop offset="0" stop-color="#fff"/>
      <stop offset=".2" stop-color="#fff" stop-opacity=".8"/>
      <stop offset=".6" stop-color="#fff" stop-opacity=".4"/>
      <stop offset=".9" stop-color="#fff" stop-opacity=".1"/>
      <stop offset="1" stop-color="#fff" stop-opacity="0"/>
    </linearGradient>
  </defs>
  <!-- Generator: Adobe Illustrator 28.7.1, SVG Export Plug-In . SVG Version: 1.2.0 Build 142)  -->
  <g class="cls-4">
    <g id="Layer_1">
      <g id="bottom_border">
        <rect class="cls-9" x="-1.3" y="424.6" width="1639.4" height="16.4"/>
      </g>
      <g id="back_buildings">
        <rect class="cls-6" x="36.3" y="281.1" width="34.9" height="80.9"/>
        <rect class="cls-6" x="84.7" y="317.2" width="35.4" height="45.9"/>
        <rect class="cls-6" x="124.6" y="306.6" width="22.7" height="55.5"/>
        <rect class="cls-6" x="179.4" y="296.1" width="18.4" height="72.7"/>
        <rect class="cls-6" x="186.4" y="310.2" width="33.9" height="55.5"/>
        <rect class="cls-6" x="233.4" y="266.3" width="25.3" height="62.6"/>
        <rect class="cls-6" x="217.8" y="328.2" width="54.9" height="41"/>
        <rect class="cls-6" x="267.2" y="320.7" width="66.3" height="54.2"/>
        <rect class="cls-6" x="280.7" y="259.8" width="40.9" height="61.4"/>
        <rect class="cls-6" x="333.5" y="235.2" width="54.9" height="136.2"/>
        <rect class="cls-6" x="375.4" y="339.7" width="56.4" height="28.7"/>
        <rect class="cls-6" x="430.8" y="356" width="37.4" height="13.2"/>
        <rect class="cls-6" x="461.7" y="341.9" width="14" height="24.2"/>
        <rect class="cls-6" x="484.1" y="278.9" width="47.4" height="91.7"/>
        <rect class="cls-6" x="526" y="356.9" width="61.3" height="20.7"/>
        <rect class="cls-6" x="571.3" y="331.3" width="24" height="30.9"/>
        <rect class="cls-6" x="589.8" y="307.1" width="37.9" height="60.8"/>
        <rect class="cls-6" x="640.2" y="289.9" width="38.9" height="74.9"/>
        <rect class="cls-6" x="677.6" y="303.6" width="42.1" height="62.6"/>
        <rect class="cls-6" x="728" y="328.7" width="67.3" height="54.2"/>
        <rect class="cls-6" x="749.9" y="260" width="20.9" height="89.4"/>
        <rect class="cls-6" x="777.8" y="295.2" width="12.4" height="82.9"/>
        <rect class="cls-6" x="777.3" y="339.3" width="43.4" height="26"/>
        <rect class="cls-6" x="819.2" y="315.9" width="40.4" height="49.4"/>
        <rect class="cls-6" x="854.6" y="338.4" width="30.4" height="32.2"/>
        <rect class="cls-6" x="885.1" y="319.4" width="29.4" height="56.9"/>
        <rect class="cls-6" x="938.9" y="298.3" width="36.4" height="72.3"/>
        <rect class="cls-6" x="994.8" y="332.2" width="33.3" height="30.4"/>
        <rect class="cls-6" x="1009.7" y="318.1" width="24.4" height="18.5"/>
        <polygon class="cls-6" points="1089 275.2 1089 374.5 1027.7 374.5 1027.7 270.1 1054.9 270.1 1054.9 275.2 1089 275.2"/>
        <rect class="cls-6" x="1053.1" y="299.6" width="49.9" height="72.3"/>
        <rect class="cls-6" x="1097" y="331.8" width="55.9" height="38.3"/>
        <rect class="cls-6" x="1169.3" y="305.3" width="32.9" height="62.2"/>
        <rect class="cls-6" x="1225.2" y="317.4" width="19.6" height="45.2"/>
        <rect class="cls-6" x="1258.1" y="303.6" width="80.3" height="61.7"/>
        <rect class="cls-6" x="1351.3" y="278.4" width="39.4" height="103.1"/>
        <rect class="cls-6" x="1401.2" y="330.4" width="42.9" height="32.1"/>
        <rect class="cls-6" x="1451.8" y="249.1" width="63.4" height="115.7"/>
        <rect class="cls-6" x="1519.9" y="293.8" width="34.9" height="75.8"/>
        <rect class="cls-9" x="90.2" y="322.1" width="3.4" height="40.4"/>
        <rect class="cls-9" x="97" y="322.1" width="3.4" height="40.4"/>
        <rect class="cls-9" x="103.8" y="322.1" width="3.4" height="40.4"/>
        <rect class="cls-9" x="110.7" y="322.1" width="3.4" height="40.4"/>
        <rect class="cls-9" x="187.9" y="316.8" width="3.4" height="47.1"/>
        <rect class="cls-9" x="194.7" y="316.8" width="3.4" height="47.1"/>
        <rect class="cls-9" x="201.5" y="316.8" width="3.4" height="47.1"/>
        <rect class="cls-9" x="208.4" y="316.8" width="3.4" height="47.1"/>
        <rect class="cls-9" x="286" y="265.9" width="4.2" height="47.1"/>
        <rect class="cls-9" x="294.4" y="265.9" width="4.2" height="47.1"/>
        <rect class="cls-9" x="302.9" y="265.9" width="4.2" height="47.1"/>
        <rect class="cls-9" x="311.3" y="265.9" width="4.2" height="47.1"/>
        <rect class="cls-9" x="126.6" y="354.5" width="19.1" height="3"/>
        <rect class="cls-9" x="126.6" y="350" width="19.1" height="3"/>
        <rect class="cls-9" x="126.6" y="345.1" width="19.1" height="3"/>
        <rect class="cls-9" x="126.6" y="340.6" width="19.1" height="3"/>
        <rect class="cls-9" x="126.6" y="335.7" width="19.1" height="3"/>
        <rect class="cls-9" x="219" y="355.3" width="47.4" height="3"/>
        <rect class="cls-9" x="219" y="350.8" width="47.4" height="3"/>
        <rect class="cls-9" x="219" y="345.9" width="47.4" height="3"/>
        <rect class="cls-9" x="219" y="341.3" width="47.4" height="3"/>
        <rect class="cls-9" x="219" y="336.4" width="47.4" height="3"/>
        <rect class="cls-9" x="126.6" y="331.1" width="19.1" height="3"/>
        <rect class="cls-9" x="126.6" y="326.2" width="19.1" height="3"/>
        <rect class="cls-9" x="126.6" y="321.7" width="19.1" height="3"/>
        <rect class="cls-9" x="126.6" y="316.8" width="19.1" height="3"/>
        <rect class="cls-9" x="126.6" y="312.3" width="19.1" height="3"/>
        <rect class="cls-9" x="126.6" y="307.4" width="19.1" height="3"/>
        <rect class="cls-9" x="235.7" y="313.9" width="12.2" height="3.6"/>
        <rect class="cls-9" x="235.7" y="308" width="12.2" height="3.6"/>
        <rect class="cls-9" x="235.7" y="302.6" width="12.2" height="3.6"/>
        <rect class="cls-9" x="235.7" y="296.8" width="12.2" height="3.6"/>
        <rect class="cls-9" x="235.7" y="291.4" width="12.2" height="3.6"/>
        <rect class="cls-9" x="235.7" y="285.6" width="12.2" height="3.6"/>
        <rect class="cls-9" x="235.7" y="280.2" width="12.2" height="3.6"/>
        <rect class="cls-9" x="235.7" y="274.3" width="12.2" height="3.6"/>
        <rect class="cls-9" x="235.7" y="269.4" width="12.2" height="3.6"/>
        <rect class="cls-9" x="339.8" y="322.7" width="45.7" height="3"/>
        <rect class="cls-9" x="339.8" y="329.3" width="45.7" height="3"/>
        <rect class="cls-9" x="339.8" y="316.1" width="45.7" height="3"/>
        <rect class="cls-9" x="339.8" y="309.6" width="45.7" height="3"/>
        <rect class="cls-9" x="339.8" y="303" width="45.7" height="3"/>
        <rect class="cls-9" x="339.8" y="296.5" width="45.7" height="3"/>
        <rect class="cls-9" x="339.8" y="289.9" width="45.7" height="3"/>
        <rect class="cls-9" x="339.8" y="283.4" width="45.7" height="3"/>
        <rect class="cls-9" x="339.8" y="276.8" width="45.7" height="3"/>
        <rect class="cls-9" x="339.8" y="270.3" width="45.7" height="3"/>
        <rect class="cls-9" x="339.8" y="263.7" width="45.7" height="3"/>
        <rect class="cls-9" x="339.8" y="257.1" width="45.7" height="3"/>
        <rect class="cls-9" x="339.8" y="250.6" width="45.7" height="3"/>
        <rect class="cls-9" x="339.8" y="244" width="45.7" height="3"/>
        <rect class="cls-9" x="487.4" y="356.1" width="40.5" height="3"/>
        <rect class="cls-9" x="487.4" y="349.6" width="40.5" height="3"/>
        <rect class="cls-9" x="487.4" y="343" width="40.5" height="3"/>
        <rect class="cls-9" x="487.4" y="336.5" width="40.5" height="3"/>
        <rect class="cls-9" x="487.4" y="329.9" width="40.5" height="3"/>
        <rect class="cls-9" x="487.4" y="323.3" width="40.5" height="3"/>
        <rect class="cls-9" x="487.4" y="316.8" width="40.5" height="3"/>
        <rect class="cls-9" x="487.4" y="310.2" width="40.5" height="3"/>
        <rect class="cls-9" x="487.4" y="303.7" width="40.5" height="3"/>
        <rect class="cls-9" x="487.4" y="297.1" width="40.5" height="3"/>
        <rect class="cls-9" x="487.4" y="290.6" width="40.5" height="3"/>
        <rect class="cls-9" x="487.4" y="284" width="40.5" height="3"/>
        <rect class="cls-9" x="573.6" y="351.5" width="14.7" height="3"/>
        <rect class="cls-9" x="573.6" y="347" width="14.7" height="3"/>
        <rect class="cls-9" x="573.6" y="342.1" width="14.7" height="3"/>
        <rect class="cls-9" x="573.6" y="337.9" width="14.7" height="3"/>
        <rect class="cls-9" x="573.6" y="333" width="14.7" height="3"/>
        <rect class="cls-9" x="751.3" y="296.1" width="15.6" height="3"/>
        <rect class="cls-9" x="751.3" y="291.2" width="15.6" height="3"/>
        <rect class="cls-9" x="751.3" y="286.6" width="15.6" height="3"/>
        <rect class="cls-9" x="751.3" y="311.2" width="15.6" height="3"/>
        <rect class="cls-9" x="751.3" y="306.3" width="15.6" height="3"/>
        <rect class="cls-9" x="751.3" y="301.7" width="15.6" height="3"/>
        <rect class="cls-9" x="751.3" y="281.7" width="15.6" height="3"/>
        <rect class="cls-9" x="751.3" y="277.2" width="15.6" height="3"/>
        <rect class="cls-9" x="751.3" y="272.3" width="15.6" height="3"/>
        <rect class="cls-9" x="751.3" y="268.2" width="15.6" height="3"/>
        <rect class="cls-9" x="751.3" y="263.3" width="15.6" height="3"/>
        <rect class="cls-9" x="594.7" y="312.3" width="4.2" height="47.1"/>
        <rect class="cls-9" x="603.2" y="312.3" width="4.2" height="47.1"/>
        <rect class="cls-9" x="611.6" y="312.3" width="4.2" height="47.1"/>
        <rect class="cls-9" x="620" y="312.3" width="4.2" height="47.1"/>
        <rect class="cls-9" x="826.4" y="317.9" width="4.2" height="47.1"/>
        <rect class="cls-9" x="834.8" y="317.9" width="4.2" height="47.1"/>
        <rect class="cls-9" x="843.3" y="317.9" width="4.2" height="47.1"/>
        <rect class="cls-9" x="851.7" y="317.9" width="4.2" height="47.1"/>
        <rect class="cls-9" x="942.9" y="303.2" width="3.6" height="56.2"/>
        <rect class="cls-9" x="950.2" y="303.2" width="3.6" height="56.2"/>
        <rect class="cls-9" x="957.4" y="303.2" width="3.6" height="56.2"/>
        <rect class="cls-9" x="964.7" y="303.2" width="3.6" height="56.2"/>
        <rect class="cls-9" x="891.3" y="325.1" width="2.8" height="28.3"/>
        <rect class="cls-9" x="897" y="325.1" width="2.8" height="28.3"/>
        <rect class="cls-9" x="902.6" y="325.1" width="2.8" height="28.3"/>
        <rect class="cls-9" x="908.3" y="325.1" width="2.8" height="28.3"/>
        <rect class="cls-9" x="998" y="336.4" width="2.8" height="20.7"/>
        <rect class="cls-9" x="1003.6" y="336.4" width="2.8" height="20.7"/>
        <rect class="cls-9" x="1009.3" y="336.4" width="2.8" height="20.7"/>
        <rect class="cls-9" x="1015" y="336.4" width="2.8" height="20.7"/>
        <rect class="cls-9" x="1114.9" y="335.3" width="4.8" height="9.8"/>
        <rect class="cls-9" x="1124.4" y="335.3" width="4.8" height="9.8"/>
        <rect class="cls-9" x="1134" y="335.3" width="4.8" height="9.8"/>
        <rect class="cls-9" x="1143.6" y="335.3" width="4.8" height="9.8"/>
        <rect class="cls-9" x="1055.6" y="306.3" width="4.8" height="48.7"/>
        <rect class="cls-9" x="1065.3" y="306.3" width="4.8" height="48.7"/>
        <rect class="cls-9" x="1074.9" y="306.3" width="4.8" height="48.7"/>
        <rect class="cls-9" x="1084.6" y="306.3" width="4.8" height="48.7"/>
        <rect class="cls-9" x="1033.4" y="276.1" width="3.3" height="18.5"/>
        <rect class="cls-9" x="1040.1" y="276.1" width="3.3" height="18.5"/>
        <rect class="cls-9" x="1033.4" y="304.4" width="3.3" height="18.5"/>
        <rect class="cls-9" x="1040.1" y="304.4" width="3.3" height="18.5"/>
        <rect class="cls-9" x="1228.9" y="335" width="14.2" height="2.2"/>
        <rect class="cls-9" x="1228.9" y="331.6" width="14.2" height="2.2"/>
        <rect class="cls-9" x="1228.9" y="328" width="14.2" height="2.2"/>
        <rect class="cls-9" x="1228.9" y="325" width="14.2" height="2.2"/>
        <rect class="cls-9" x="1228.9" y="321.3" width="14.2" height="2.2"/>
        <rect class="cls-9" x="1228.9" y="345.4" width="14.2" height="2.2"/>
        <rect class="cls-9" x="1228.9" y="342.3" width="14.2" height="2.2"/>
        <rect class="cls-9" x="1228.9" y="338.7" width="14.2" height="2.2"/>
        <rect class="cls-9" x="1264.9" y="332.5" width="65.3" height="2.1"/>
        <rect class="cls-9" x="1264.9" y="326.9" width="65.3" height="2.1"/>
        <rect class="cls-9" x="1264.9" y="321.3" width="65.3" height="2.1"/>
        <rect class="cls-9" x="1264.9" y="315.7" width="65.3" height="2.1"/>
        <rect class="cls-9" x="1264.9" y="338.1" width="65.3" height="2.1"/>
        <rect class="cls-9" x="1264.9" y="343.4" width="65.3" height="2.1"/>
        <rect class="cls-9" x="1264.9" y="349.1" width="65.3" height="2.1"/>
        <rect class="cls-9" x="1455.6" y="270" width="52.9" height="2.1"/>
        <rect class="cls-9" x="1455.6" y="264.4" width="52.9" height="2.1"/>
        <rect class="cls-9" x="1455.6" y="258.7" width="52.9" height="2.1"/>
        <rect class="cls-9" x="1455.6" y="253.1" width="52.9" height="2.1"/>
        <rect class="cls-9" x="1455.6" y="275.7" width="52.9" height="2.1"/>
        <rect class="cls-9" x="1455.6" y="281.3" width="52.9" height="2.1"/>
        <rect class="cls-9" x="1455.6" y="287" width="52.9" height="2.1"/>
        <rect class="cls-9" x="1455.6" y="309.6" width="52.9" height="2.1"/>
        <rect class="cls-9" x="1455.6" y="303.9" width="52.9" height="2.1"/>
        <rect class="cls-9" x="1455.6" y="298.3" width="52.9" height="2.1"/>
        <rect class="cls-9" x="1455.6" y="292.6" width="52.9" height="2.1"/>
        <rect class="cls-9" x="1455.6" y="315.2" width="52.9" height="2.1"/>
        <rect class="cls-9" x="1455.6" y="320.9" width="52.9" height="2.1"/>
        <rect class="cls-9" x="1455.6" y="326.5" width="52.9" height="2.1"/>
        <rect class="cls-9" x="1455.6" y="343.5" width="52.9" height="2.1"/>
        <rect class="cls-9" x="1455.6" y="337.8" width="52.9" height="2.1"/>
        <rect class="cls-9" x="1455.6" y="332.2" width="52.9" height="2.1"/>
        <rect class="cls-9" x="1410.5" y="339.4" width="2.2" height="15.6"/>
        <rect class="cls-9" x="1417.2" y="339.4" width="2.2" height="15.6"/>
        <rect class="cls-9" x="1424" y="339.4" width="2.2" height="15.6"/>
        <rect class="cls-9" x="1430.8" y="339.4" width="2.2" height="15.6"/>
        <rect class="cls-9" x="1437.5" y="339.7" width="2.2" height="15.6"/>
        <rect class="cls-9" x="1528.2" y="298" width="2.2" height="60.1"/>
        <rect class="cls-9" x="1535" y="298" width="2.2" height="60.1"/>
        <rect class="cls-9" x="1541.8" y="298" width="2.2" height="60.1"/>
        <rect class="cls-6" x="34.8" y="361.6" width="1534" height="63.8"/>
      </g>
      <g id="shade">
        <polygon class="cls-3" points="1568.8 361.6 1568.8 425.4 34.8 425.4 34.8 361.6 36.3 361.6 36.3 281.1 71.2 281.1 71.2 361.6 84.7 361.6 84.7 317.2 120.1 317.2 120.1 361.6 124.6 361.6 124.6 306.6 147.2 306.6 147.2 361.6 179.4 361.6 179.4 296.1 197.9 296.1 197.9 310.2 220.3 310.2 220.3 328.2 233.4 328.2 233.4 266.3 258.7 266.3 258.7 328.2 267.2 328.2 267.2 320.7 280.7 320.7 280.7 259.8 321.5 259.8 321.5 320.7 333.5 320.7 333.5 235.2 388.4 235.2 388.4 339.7 431.8 339.7 431.8 356 461.7 356 461.7 341.9 475.6 341.9 475.6 361.6 484.1 361.6 484.1 278.9 531.5 278.9 531.5 356.9 571.3 356.9 571.3 331.3 589.8 331.3 589.8 307.1 627.7 307.1 627.7 361.6 640.2 361.6 640.2 289.9 679.1 289.9 679.1 303.6 719.7 303.6 719.7 361.6 728 361.6 728 328.7 749.9 328.7 749.9 260 770.9 260 770.9 328.7 777.8 328.7 777.8 295.2 790.3 295.2 790.3 328.7 795.3 328.7 795.3 339.3 819.2 339.3 819.2 315.9 859.6 315.9 859.6 338.4 885.1 338.4 885.1 319.4 914.5 319.4 914.5 361.6 938.9 361.6 938.9 298.3 975.3 298.3 975.3 361.6 994.8 361.6 994.8 332.2 1009.7 332.2 1009.7 318.1 1027.7 318.1 1027.7 270.1 1054.9 270.1 1054.9 275.2 1089 275.2 1089 299.6 1103 299.6 1103 331.8 1152.9 331.8 1152.9 361.6 1169.3 361.6 1169.3 305.3 1202.2 305.3 1202.2 361.6 1225.2 361.6 1225.2 317.4 1244.8 317.4 1244.8 361.6 1258.1 361.6 1258.1 303.6 1338.4 303.6 1338.4 361.6 1351.3 361.6 1351.3 278.4 1390.7 278.4 1390.7 361.6 1401.2 361.6 1401.2 330.4 1444.1 330.4 1444.1 361.6 1451.8 361.6 1451.8 249.1 1515.3 249.1 1515.3 361.6 1519.9 361.6 1519.9 293.8 1554.8 293.8 1554.8 361.6 1568.8 361.6"/>
      </g>
      <g id="front_buildings">
        <image class="cls-4" width="509" height="388" transform="translate(1305.7 344.1) scale(0)" xlink:href="city-scape-1.png"/>
        <image class="cls-4" width="499" height="420" transform="translate(1456.2 355.1) scale(0)" xlink:href="city-scape-2.png"/>
        <image class="cls-4" width="502" height="380" transform="translate(1246.4 339.6) scale(0)" xlink:href="city-scape-3.png"/>
        <image class="cls-4" width="510" height="231" transform="translate(1163.5 336) scale(0)" xlink:href="city-scape-4.png"/>
        <image class="cls-4" width="497" height="500" transform="translate(1222.2 337.2) scale(0)" xlink:href="city-scape-5.png"/>
        <image class="cls-4" width="512" height="327" transform="translate(1331.9 354.1) scale(0)" xlink:href="city-scape-6.png"/>
        <image class="cls-4" width="509" height="250" transform="translate(1216.9 357) scale(.1)" xlink:href="city-scape-7.png"/>
        <image class="cls-4" width="503" height="493" transform="translate(1470.9 349.1) scale(0)" xlink:href="city-scape-8.png"/>
        <image class="cls-4" width="511" height="436" transform="translate(1384.5 347.5) scale(0)" xlink:href="city-scape-9.png"/>
        <image class="cls-4" width="509" height="367" transform="translate(1497.2 361.7) scale(0)" xlink:href="city-scape-10.png"/>
        <image class="cls-4" width="512" height="317" transform="translate(1359.5 378.2) scale(.1)" xlink:href="city-scape-11.png"/>
        <image class="cls-4" width="504" height="473" transform="translate(1548 361.8) scale(0)" xlink:href="city-scape-12.png"/>
        <image class="cls-4" width="507" height="441" transform="translate(1422.4 366.5) scale(.1)" xlink:href="city-scape-13.png"/>
        <image class="cls-4" width="512" height="430" transform="translate(1278.3 349.9) scale(.1)" xlink:href="city-scape-14.png"/>
        <image class="cls-4" width="476" height="503" transform="translate(1316.2 368.8) scale(.1)" xlink:href="city-scape-15.png"/>
        <image class="cls-4" width="509" height="341" transform="translate(1174.2 345.8) scale(.1)" xlink:href="city-scape-16.png"/>
        <image class="cls-4" width="509" height="355" transform="translate(1520.2 382) scale(.1)" xlink:href="city-scape-17.png"/>
        <image class="cls-4" width="512" height="348" transform="translate(1557.7 394.3) scale(.1)" xlink:href="city-scape-18.png"/>
        <image class="cls-4" width="509" height="358" transform="translate(1453.6 390.1) scale(.1)" xlink:href="city-scape-19.png"/>
        <image class="cls-4" width="514" height="406" transform="translate(1196.9 370.1) scale(.1)" xlink:href="city-scape-20.png"/>
        <image class="cls-4" width="511" height="355" transform="translate(1269.7 381.1) scale(.1)" xlink:href="city-scape-21.png"/>
        <image class="cls-4" width="509" height="222" transform="translate(1106.6 346.6) scale(.1)" xlink:href="city-scape-22.png"/>
        <image class="cls-4" width="505" height="360" transform="translate(1313.5 395.6) scale(.1)" xlink:href="city-scape-23.png"/>
        <image class="cls-4" width="509" height="266" transform="translate(1378.7 404.8) scale(.1)" xlink:href="city-scape-24.png"/>
        <image class="cls-4" width="511" height="353" transform="translate(1126.5 372) scale(.1)" xlink:href="city-scape-25.png"/>
        <image class="cls-4" width="510" height="447" transform="translate(1055.1 398.5) scale(0)" xlink:href="city-scape-26.png"/>
        <image class="cls-4" width="512" height="502" transform="translate(1078.3 363.5) scale(.1)" xlink:href="city-scape-27.png"/>
        <polygon class="cls-1" points="1411.5 369.9 1439.7 363.2 1449.5 361.4 1456 362.9 1462.1 363.8 1480.4 365.5 1468.8 373.8 1411.5 369.9"/>
        <polygon class="cls-10" points="1450.7 397 1509.9 397.8 1524.5 389.7 1462.6 385.8 1450.7 397 1450.7 397"/>
        <polygon class="cls-11" points="1376.4 407.7 1441.8 407.1 1439 398.7 1384.6 398.9 1376.4 407.7 1376.4 407.7"/>
        <polygon class="cls-12" points="1205.8 364.6 1193.1 371.8 1256.6 383.6 1269.7 375.5 1205.8 364.6 1205.8 364.6"/>
        <polygon class="cls-7" points="1305.7 404.3 1361 405.2 1369 395.2 1322.6 392.9 1305.7 404.3 1305.7 404.3"/>
        <polygon class="cls-8" points="1491.6 367.8 1540.9 368.4 1548 362.6 1506.7 361.3 1491.6 367.8 1491.6 367.8"/>
        <polygon class="cls-7" points="1079 371 1134.3 372 1142.3 361.9 1095.9 359.6 1079 371 1079 371"/>
        <image class="cls-4" width="507" height="388" transform="translate(788.5 344.1) scale(0)" xlink:href="city-scape-28.png"/>
        <image class="cls-4" width="511" height="420" transform="translate(938.7 355.2) scale(0)" xlink:href="city-scape-29.png"/>
        <image class="cls-4" width="499" height="380" transform="translate(729.2 339.6) scale(0)" xlink:href="city-scape-30.png"/>
        <image class="cls-4" width="508" height="231" transform="translate(646.3 336) scale(0)" xlink:href="city-scape-31.png"/>
        <image class="cls-4" width="493" height="500" transform="translate(704.9 337.2) scale(0)" xlink:href="city-scape-32.png"/>
        <image class="cls-4" width="510" height="327" transform="translate(814.6 354) scale(0)" xlink:href="city-scape-33.png"/>
        <image class="cls-4" width="508" height="250" transform="translate(699.6 357) scale(.1)" xlink:href="city-scape-34.png"/>
        <image class="cls-4" width="512" height="493" transform="translate(953.5 349.5) scale(0)" xlink:href="city-scape-35.png"/>
        <image class="cls-4" width="509" height="436" transform="translate(867.2 347.4) scale(0)" xlink:href="city-scape-36.png"/>
        <image class="cls-4" width="508" height="367" transform="translate(979.9 361.7) scale(0)" xlink:href="city-scape-37.png"/>
        <image class="cls-4" width="509" height="316" transform="translate(827.1 366.8) scale(.1)" xlink:href="city-scape-38.png"/>
        <image class="cls-4" width="502" height="473" transform="translate(1030.8 361.8) scale(0)" xlink:href="city-scape-39.png"/>
        <image class="cls-4" width="506" height="441" transform="translate(905.1 366.5) scale(.1)" xlink:href="city-scape-40.png"/>
        <image class="cls-4" width="511" height="430" transform="translate(761 349.9) scale(.1)" xlink:href="city-scape-41.png"/>
        <image class="cls-4" width="475" height="503" transform="translate(798.8 368.8) scale(.1)" xlink:href="city-scape-42.png"/>
        <image class="cls-4" width="512" height="340" transform="translate(653.6 351.4) scale(.1)" xlink:href="city-scape-43.png"/>
        <image class="cls-4" width="508" height="355" transform="translate(1002.9 382) scale(.1)" xlink:href="city-scape-44.png"/>
        <image class="cls-4" width="511" height="348" transform="translate(1040.4 394.3) scale(.1)" xlink:href="city-scape-45.png"/>
        <image class="cls-4" width="512" height="326" transform="translate(933.9 391) scale(.1)" xlink:href="city-scape-46.png"/>
        <image class="cls-4" width="510" height="355" transform="translate(752.4 381.1) scale(.1)" xlink:href="city-scape-47.png"/>
        <image class="cls-4" width="508" height="222" transform="translate(589.2 346.5) scale(.1)" xlink:href="city-scape-48.png"/>
        <image class="cls-4" width="512" height="360" transform="translate(796.2 395.8) scale(.1)" xlink:href="city-scape-49.png"/>
        <image class="cls-4" width="502" height="514" transform="translate(860.9 384.2) scale(.1)" xlink:href="city-scape-50.png"/>
        <image class="cls-4" width="510" height="353" transform="translate(609.3 372) scale(.1)" xlink:href="city-scape-51.png"/>
        <image class="cls-4" width="507" height="447" transform="translate(537.8 398.4) scale(0)" xlink:href="city-scape-52.png"/>
        <image class="cls-4" width="510" height="502" transform="translate(560.9 363.4) scale(.1)" xlink:href="city-scape-53.png"/>
        <polygon class="cls-1" points="894.2 369.9 922.3 363.2 932.2 361.4 938.7 362.9 944.7 363.8 963 365.5 951.5 373.8 894.2 369.9"/>
        <polygon class="cls-8" points="930.6 397.3 995.1 395.7 1010.4 388.9 942.8 388.1 930.6 397.3 930.6 397.3"/>
        <polygon class="cls-11" points="856.1 391.8 913.7 391.2 911.3 382.8 863.3 383 856.1 391.8 856.1 391.8"/>
        <polygon class="cls-7" points="788.3 404.3 843.6 405.2 851.7 395.2 805.3 392.9 788.3 404.3 788.3 404.3"/>
        <polygon class="cls-8" points="974.3 367.8 1023.5 368.4 1030.7 362.6 989.4 361.3 974.3 367.8 974.3 367.8"/>
        <polygon class="cls-7" points="561.7 371 617 372 625 361.9 578.6 359.6 561.7 371 561.7 371"/>
        <image class="cls-4" width="505" height="384" transform="translate(259 342.8) scale(0)" xlink:href="city-scape-54.png"/>
        <image class="cls-4" width="509" height="414" transform="translate(409.3 354) scale(0)" xlink:href="city-scape-55.png"/>
        <image class="cls-4" width="512" height="374" transform="translate(199.4 338.4) scale(0)" xlink:href="city-scape-56.png"/>
        <image class="cls-4" width="507" height="226" transform="translate(116.6 334.7) scale(0)" xlink:href="city-scape-57.png"/>
        <image class="cls-4" width="511" height="512" transform="translate(175.4 335.9) scale(0)" xlink:href="city-scape-58.png"/>
        <image class="cls-4" width="508" height="333" transform="translate(285.3 352.5) scale(0)" xlink:href="city-scape-59.png"/>
        <image class="cls-4" width="507" height="246" transform="translate(170 355.8) scale(.1)" xlink:href="city-scape-60.png"/>
        <image class="cls-4" width="510" height="500" transform="translate(424.1 347.8) scale(0)" xlink:href="city-scape-61.png"/>
        <image class="cls-4" width="508" height="441" transform="translate(337.8 345.8) scale(0)" xlink:href="city-scape-62.png"/>
        <image class="cls-4" width="506" height="363" transform="translate(450.4 360.4) scale(0)" xlink:href="city-scape-63.png"/>
        <image class="cls-4" width="508" height="319" transform="translate(297.9 365.4) scale(.1)" xlink:href="city-scape-64.png"/>
        <image class="cls-4" width="512" height="468" transform="translate(501.1 360.7) scale(0)" xlink:href="city-scape-65.png"/>
        <image class="cls-4" width="513" height="437" transform="translate(375.3 365.4) scale(.1)" xlink:href="city-scape-66.png"/>
        <image class="cls-4" width="509" height="426" transform="translate(231.5 348.6) scale(.1)" xlink:href="city-scape-67.png"/>
        <image class="cls-4" width="473" height="509" transform="translate(269.5 367) scale(.1)" xlink:href="city-scape-68.png"/>
        <image class="cls-4" width="507" height="338" transform="translate(127.5 344.6) scale(.1)" xlink:href="city-scape-69.png"/>
        <image class="cls-4" width="506" height="353" transform="translate(473.5 380.6) scale(.1)" xlink:href="city-scape-70.png"/>
        <image class="cls-4" width="510" height="344" transform="translate(510.9 393.1) scale(.1)" xlink:href="city-scape-71.png"/>
        <image class="cls-4" width="513" height="339" transform="translate(404.1 388.4) scale(.1)" xlink:href="city-scape-72.png"/>
        <image class="cls-4" width="508" height="352" transform="translate(223 379.8) scale(.1)" xlink:href="city-scape-73.png"/>
        <image class="cls-4" width="513" height="226" transform="translate(59.8 345.1) scale(.1)" xlink:href="city-scape-74.png"/>
        <image class="cls-4" width="510" height="366" transform="translate(266.9 394.2) scale(.1)" xlink:href="city-scape-75.png"/>
        <image class="cls-4" width="501" height="510" transform="translate(331.4 382.8) scale(.1)" xlink:href="city-scape-76.png"/>
        <image class="cls-4" width="509" height="350" transform="translate(79.6 370.7) scale(.1)" xlink:href="city-scape-77.png"/>
        <image class="cls-4" width="505" height="455" transform="translate(8.6 396.9) scale(0)" xlink:href="city-scape-78.png"/>
        <image class="cls-4" width="508" height="499" transform="translate(31.6 362.1) scale(.1)" xlink:href="city-scape-79.png"/>
        <polygon class="cls-1" points="364.8 368.5 392.9 361.9 402.8 360 409.3 361.6 415.4 362.5 433.7 364.2 422.1 372.5 364.8 368.5"/>
        <polygon class="cls-10" points="401.2 395.9 465.7 394.4 481 387.6 413.5 386.8 401.2 395.9 401.2 395.9"/>
        <polygon class="cls-11" points="326.7 390.5 384.3 389.8 381.9 381.5 333.9 381.7 326.7 390.5 326.7 390.5"/>
        <polygon class="cls-7" points="259 402.9 314.3 403.9 322.3 393.9 275.9 391.6 259 402.9 259 402.9"/>
        <polygon class="cls-8" points="444.9 366.5 494.1 367 501.3 361.3 460 360 444.9 366.5 444.9 366.5"/>
        <polygon class="cls-7" points="32.3 369.7 87.6 370.6 95.6 360.6 49.2 358.3 32.3 369.7 32.3 369.7"/>
        <image class="cls-4" width="513" height="362" transform="translate(155.9 375.5) scale(.1)" xlink:href="city-scape-80.png"/>
        <polygon class="cls-2" points="163.8 368.1 151.8 377.2 225.6 381.9 233.9 374.1 163.8 368.1 163.8 368.1"/>
        <image class="cls-4" width="513" height="331" transform="translate(679.7 377.2) scale(.2)" xlink:href="city-scape-81.png"/>
        <polygon class="cls-2" points="687.8 369.6 674.6 378.8 756.1 383.5 765.3 375.7 687.8 369.6 687.8 369.6"/>
      </g>
      <g id="details">
        <polygon class="cls-5" points="1530.1 409.1 1529.4 418 1529.4 420.3 1529.8 425.5 1535.6 426 1537 425.9 1537.2 425.4 1536.3 409.5 1530.1 409.1 1530.1 409.1"/>
        <polygon class="cls-5" points="1587.9 413.8 1587.2 425.8 1596.8 427.5 1598.9 426.9 1599.1 425.2 1598.8 414.8 1593.4 415.2 1587.9 413.8 1587.9 413.8"/>
        <polygon class="cls-5" points="1564.3 421.4 1565.9 434.6 1576.6 434.1 1574.9 420.1 1564.3 421.4 1564.3 421.4"/>
        <polygon class="cls-5" points="1475.6 354.2 1476.2 359.7 1479.9 359.3 1479 353.4 1476.4 353.4 1475.6 354.2 1475.6 354.2"/>
        <polygon class="cls-5" points="1391.6 359.2 1392.2 364.8 1395.9 364.3 1395 358.4 1392.4 358.5 1391.6 359.2 1391.6 359.2"/>
        <polygon class="cls-5" points="1399.9 358.5 1400.5 364.1 1404.2 363.7 1403.2 357.8 1400.7 357.8 1399.9 358.5 1399.9 358.5"/>
        <polygon class="cls-5" points="1503.3 376.9 1503.9 382.5 1507.6 382 1506.7 376.1 1504.1 376.2 1503.3 376.9 1503.3 376.9"/>
        <polygon class="cls-5" points="1238.9 392.8 1237.6 399.6 1237.7 400.3 1238.2 400.6 1250.7 402.7 1252.4 388.1 1239.5 387.8 1238.9 392.8"/>
        <polygon class="cls-5" points="1288.1 397.8 1291.1 391.3 1291 390.5 1289.2 390 1278.4 389.4 1276.3 389.6 1275.5 390.5 1274 398.2 1288.1 397.8 1288.1 397.8"/>
        <polygon class="cls-5" points="1537.1 392.4 1537.3 399.6 1537.5 400.3 1538.2 400.5 1557.3 401.1 1556.8 393.9 1556.5 393.2 1556 393 1537.1 392.4 1537.1 392.4"/>
        <polygon class="cls-5" points="1303.6 365.7 1310.3 365.9 1309.3 357.1 1303.1 357.8 1303.6 365.7"/>
        <polygon class="cls-5" points="1339.1 372.9 1338 380.5 1347.2 380.8 1347.7 372.6 1339.1 372.9 1339.1 372.9"/>
        <polygon class="cls-5" points="1148.8 355.4 1146.5 360.9 1160.3 359.7 1160.4 352.9 1148.8 355.4 1148.8 355.4"/>
        <polygon class="cls-5" points="1343.2 407.7 1339.6 417.6 1347.7 418.4 1350 409.1 1343.2 407.7 1343.2 407.7"/>
        <polygon class="cls-5" points="1386.8 413 1383.2 422.9 1391.3 423.7 1393.6 414.4 1386.8 413 1386.8 413"/>
        <polygon class="cls-5" points="1409.5 422.3 1410.3 426.8 1419.9 426.4 1419.7 422.7 1409.5 422.3 1409.5 422.3"/>
        <polygon class="cls-5" points="1503.3 411.2 1503.9 418.6 1511.7 417.9 1511.5 411.9 1503.3 411.2 1503.3 411.2"/>
        <polygon class="cls-5" points="1462.5 432.6 1470.7 432.8 1469.9 417.4 1462.1 416.7 1462.5 432.6"/>
        <polygon class="cls-5" points="1205.6 420.3 1215.3 420.5 1214.4 405.1 1205.1 404.4 1205.6 420.3"/>
        <polygon class="cls-5" points="1457.5 384.4 1466 383.9 1465.2 377 1456.9 378.6 1457.5 384.4"/>
        <polygon class="cls-5" points="1167.5 384.8 1171.7 393 1184.2 391 1185.3 390.6 1185.5 388.7 1183.6 382 1167.5 384.8 1167.5 384.8"/>
        <polygon class="cls-5" points="1108.9 386 1113.1 392.8 1125.5 391.2 1126.7 390.8 1126.8 389.3 1125 383.7 1108.9 386 1108.9 386"/>
        <polygon class="cls-5" points="1151.5 400.8 1152.4 409.1 1162.2 408.4 1160.4 400.4 1151.5 400.8 1151.5 400.8"/>
        <polygon class="cls-5" points="692.8 406.3 692.3 424.3 709.6 423.8 710.1 407.6 697.2 407 692.8 406.3 692.8 406.3"/>
        <polygon class="cls-5" points="1086.5 382.3 1084.5 392.3 1096 392.7 1095.7 381.5 1086.5 382.3 1086.5 382.3"/>
        <polygon class="cls-5" points="1012.7 409.1 1012 418 1012.1 420.3 1012.5 425.5 1018.3 426 1019.6 425.9 1019.9 425.4 1018.9 409.5 1012.7 409.1 1012.7 409.1"/>
        <polygon class="cls-5" points="1070.5 413.8 1069.8 425.8 1079.4 427.5 1081.5 426.9 1081.7 425.2 1081.5 414.8 1076 415.2 1070.5 413.8 1070.5 413.8"/>
        <polygon class="cls-5" points="1046.6 421.7 1048.2 434.9 1058.9 434.4 1057.2 420.4 1046.6 421.7 1046.6 421.7"/>
        <polygon class="cls-5" points="958.3 354.2 958.9 359.7 962.5 359.3 961.6 353.4 959.1 353.4 958.3 354.2 958.3 354.2"/>
        <polygon class="cls-5" points="986 376.9 986.6 382.5 990.2 382 989.3 376.1 986.8 376.2 986 376.9 986 376.9"/>
        <polygon class="cls-5" points="718.7 386.5 721.1 400.9 721.3 401.5 722 401.8 734.6 400.9 732 386.4 718.7 386.5 718.7 386.5"/>
        <polygon class="cls-5" points="776.1 413.8 779 407.3 779 406.5 777.2 406.1 766.4 405.5 764.3 405.6 763.5 406.5 762 414.2 776.1 413.8 776.1 413.8"/>
        <polygon class="cls-5" points="1019.7 392.4 1020 399.6 1020.1 400.3 1020.8 400.5 1040 401.1 1039.5 393.9 1039.1 393.2 1038.6 393 1019.7 392.4 1019.7 392.4"/>
        <polygon class="cls-5" points="786.3 365.7 793 365.9 791.9 357.1 785.8 357.8 786.3 365.7"/>
        <polygon class="cls-5" points="821.7 372.9 820.6 380.5 829.9 380.8 830.3 372.6 821.7 372.9 821.7 372.9"/>
        <polygon class="cls-5" points="631.4 355.4 629.2 360.9 642.9 359.7 643.1 352.9 631.4 355.4 631.4 355.4"/>
        <polygon class="cls-5" points="805.8 417.4 802.2 427.3 810.3 428.2 812.6 418.9 805.8 417.4 805.8 417.4"/>
        <polygon class="cls-5" points="886.6 412.7 887.2 420.1 895 419.4 894.8 413.4 886.6 412.7 886.6 412.7"/>
        <polygon class="cls-5" points="986 411.2 986.6 418.6 994.4 417.9 994.2 411.9 986 411.2 986 411.2"/>
        <polygon class="cls-5" points="948.9 437.3 957.1 437.4 956.3 422 948.6 421.3 948.9 437.3"/>
        <polygon class="cls-5" points="940.1 384.4 948.6 383.9 947.9 377 939.6 378.6 940.1 384.4"/>
        <polygon class="cls-5" points="632.1 387.5 636.3 395.6 648.8 393.7 649.9 393.2 650.1 391.4 648.2 384.7 632.1 387.5 632.1 387.5"/>
        <polygon class="cls-5" points="587.7 425.8 588.6 412.3 601.5 412.9 602.8 413.4 603.7 416.2 604.5 427.1 587.7 425.8 587.7 425.8"/>
        <polygon class="cls-5" points="657.2 383.1 658.4 391.3 670.7 390.7 668.5 382.7 657.2 383.1 657.2 383.1"/>
        <polygon class="cls-5" points="665.5 356.2 665.2 368.6 674.7 368.2 674.9 357.1 667.9 356.7 665.5 356.2 665.5 356.2"/>
        <polygon class="cls-5" points="569.2 382.3 567.2 392.3 578.6 392.7 578.4 381.5 569.2 382.3 569.2 382.3"/>
        <polygon class="cls-5" points="483.4 407.8 482.6 416.7 482.7 419 483.1 424.2 488.9 424.7 490.3 424.6 490.5 424 489.6 408.2 483.4 407.8 483.4 407.8"/>
        <polygon class="cls-5" points="541.1 412.4 540.4 424.4 550 426.2 552.2 425.6 552.3 423.9 552.1 413.5 546.6 413.9 541.1 412.4 541.1 412.4"/>
        <polygon class="cls-5" points="517.2 419.4 518.8 432.6 529.5 432.2 527.8 418.2 517.2 419.4 517.2 419.4"/>
        <polygon class="cls-5" points="428.9 352.8 429.5 358.4 433.2 357.9 432.2 352.1 429.7 352.1 428.9 352.8 428.9 352.8"/>
        <polygon class="cls-5" points="456.6 375.6 457.2 381.2 460.9 380.7 459.9 374.8 457.4 374.8 456.6 375.6 456.6 375.6"/>
        <polygon class="cls-5" points="164.5 383.8 166.9 398.3 167.2 398.9 167.8 399.1 180.5 398.3 177.8 383.7 164.5 383.8 164.5 383.8"/>
        <polygon class="cls-5" points="241.4 396.5 244.3 390 244.3 389.1 242.5 388.7 231.7 388.1 229.6 388.3 228.8 389.2 227.3 396.9 241.4 396.5 241.4 396.5"/>
        <polygon class="cls-5" points="490.4 391.1 490.6 398.3 490.8 399 491.4 399.2 510.6 399.8 510.1 392.6 509.7 391.9 509.3 391.7 490.4 391.1 490.4 391.1"/>
        <polygon class="cls-5" points="256.9 364.4 263.6 364.6 262.6 355.7 256.4 356.5 256.9 364.4"/>
        <polygon class="cls-5" points="292.3 371.5 291.2 379.1 300.5 379.4 300.9 371.3 292.3 371.5 292.3 371.5"/>
        <polygon class="cls-5" points="102 354.1 99.8 359.6 113.6 358.4 113.7 351.6 102 354.1 102 354.1"/>
        <polygon class="cls-5" points="295.1 405.8 291.6 415.7 299.6 416.5 301.9 407.2 295.1 405.8 295.1 405.8"/>
        <polygon class="cls-5" points="357.2 411.4 357.8 418.8 365.6 418 365.5 412 357.2 411.4 357.2 411.4"/>
        <polygon class="cls-5" points="456.6 409.9 457.2 417.3 465 416.5 464.8 410.6 456.6 409.9 456.6 409.9"/>
        <polygon class="cls-5" points="419.5 435.9 427.7 436.1 426.9 420.7 419.2 420 419.5 435.9"/>
        <polygon class="cls-5" points="410.7 383.1 419.3 382.5 418.5 375.7 410.2 377.3 410.7 383.1"/>
        <polygon class="cls-5" points="98.7 386.1 102.9 394.3 115.4 392.3 116.5 391.9 116.7 390.1 114.8 383.3 98.7 386.1 98.7 386.1"/>
        <polygon class="cls-5" points="52.6 410.1 37.3 411.2 38.3 422.6 38.9 423.7 42.1 424.4 54.4 424.9 52.6 410.1 52.6 410.1"/>
        <polygon class="cls-5" points="125.7 381.9 126.5 393.1 135.3 392.2 133.7 381.4 125.7 381.9 125.7 381.9"/>
        <polygon class="cls-5" points="136.3 350.5 135.8 362.8 153.2 362.4 153.6 351.4 140.7 351 136.3 350.5 136.3 350.5"/>
        <polygon class="cls-5" points="39.8 380.9 37.8 391 49.2 391.4 49 380.1 39.8 380.9 39.8 380.9"/>
      </g>
      <g id="sun">
        <circle id="Ellipse_166" class="cls-9" cx="162.7" cy="93.4" r="55.5"/>
      </g>
    </g>
  </g>
</svg>