<?xml version="1.0" encoding="UTF-8"?>
<svg id="small_incons" xmlns="http://www.w3.org/2000/svg" viewBox="0 0 200 165">
  <defs>
    <style>
      .cls-1 {
        stroke: #ce539e;
      }

      .cls-1, .cls-2, .cls-3, .cls-4, .cls-5 {
        fill: none;
        stroke-linecap: round;
        stroke-linejoin: round;
      }

      .cls-2 {
        stroke: #00b2de;
      }

      .cls-3 {
        stroke: #fcb316;
      }

      .cls-4 {
        stroke: #cd539d;
      }

      .cls-5 {
        stroke: #aac02c;
      }
    </style>
  </defs>
  <g>
    <path class="cls-5" d="M138.94,133.93c-.05,1.36,1.83,6.81,1.16,10.04-1.19,5.78-3.67,9.72-1.19,10.43,1.81.52,3.21-8.61,4.18-8.63s1.54,6.62,2.56,9.21c.42,1.06,2.13.36,2.01-.77-.28-2.68-.9-7.8-1.86-12.5-.25-1.23-.81-6.31-1.02-8.69,3.13-.02,5.44-5.11,6.13-8.31.07-.34-.37-.53-.57-.25-1.07,1.59-1.9,3.24-3.32,4.59-.84.8-1.81,1.3-2.84,1.58s-2.14.35-3.23.28c-1.86-.12-2.7-.39-4.08,1.51-1.1,1.52-2.56,3.36-1.76,5.24.47,1.1,4.02,3.46,5.07,3.8.46-2.54-3.96-2.6-2.95-5.34.77-2.11,1.77-1.81,1.71-2.21Z"/>
    <path class="cls-5" d="M162.87,130.5c1.69.53,4.48,4.85,4.18,5.98-.22.82-1.36,2.38-1.9,2.95s-1.77,2.16-2.66,1.85c-1.02-.36.18-1.55.59-2,.82-.91,1.32-1.24,1.15-2.47-.16-1.16-.88-2.42-1.6-3.3-.34,6.23.46,14.16.08,20.31-.04.63-1.06.77-1.36.21-1.32-2.49-1.91-11.2-2.38-9.74-.64,1.97-1.7,9.07-1.98,9.98-.22.73-2.12.56-2.11-.2.02-1.71.62-5.56.74-6.37.69-4.75,1.29-7.84,1.29-12.2,0-1.76.23-3.14-1.42-3.98-.82-.42-4.44-1.74-5.81-2.73-.36-.26-.12-.84.32-.77,2.94.47,11.65,2.11,12.86,2.49Z"/>
    <path class="cls-5" d="M143.65,127.74c0,1.38-1.27,3.19-2.71,3.19s-2.51-1.81-2.51-3.19,1.17-2.49,2.61-2.49,2.61,1.12,2.61,2.49Z"/>
    <path class="cls-5" d="M163.36,126.83c0,1.38-1.35,3.16-2.72,3.16s-2.22-1.78-2.22-3.16,1.1-2.5,2.47-2.5,2.47,1.12,2.47,2.5Z"/>
  </g>
  <g>
    <path class="cls-2" d="M45.45,81.01c-.14-.17-.4-.17-.53,0-1.63,2.1-10.23,13.4-10.23,18.77,0,5.93,4.7,10.74,10.49,10.74s10.49-4.81,10.49-10.74c0-5.36-8.6-16.67-10.23-18.77Z"/>
    <path class="cls-2" d="M52.33,99.78c0,4.07-3.21,7.39-7.15,7.39"/>
  </g>
  <g>
    <path class="cls-2" d="M73.47,27.99v12.56M70.33,37.6l.92.69c1.23.92,3.21.92,4.44,0,1.23-.92,1.23-2.41,0-3.33-.61-.46-1.42-.69-2.22-.69-.76,0-1.52-.23-2.1-.69-1.16-.92-1.16-2.41,0-3.33,1.16-.92,3.04-.92,4.19,0l.43.35M82.89,34.27c0,5.2-4.22,9.42-9.42,9.42s-9.42-4.22-9.42-9.42,4.22-9.42,9.42-9.42,9.42,4.22,9.42,9.42Z"/>
    <g>
      <path class="cls-2" d="M87.82,28.99h8.68c2.78,0,5.03,2.25,5.03,5.03v5.45"/>
      <polyline class="cls-2" points="92.52 24.23 87.35 29.06 92.19 34.24"/>
    </g>
    <path class="cls-2" d="M101.14,56.18v-8.24c0-.71-.38-1.37-.99-1.72l-7.13-4.12c-.62-.36-1.37-.36-1.99,0l-7.13,4.12c-.62.36-.99,1.01-.99,1.72v8.24c0,.71.38,1.37.99,1.72l7.13,4.12c.62.36,1.37.36,1.99,0l7.13-4.12c.62-.36.99-1.01.99-1.72Z"/>
    <line class="cls-2" x1="100.51" y1="47.34" x2="92.01" y2="52.25"/>
    <line class="cls-2" x1="83.52" y1="47.34" x2="92.01" y2="52.25"/>
    <line class="cls-2" x1="92.01" y1="62.05" x2="92.01" y2="52.25"/>
    <g>
      <path class="cls-2" d="M76.98,57.29h-8.68c-2.78,0-5.03-2.25-5.03-5.03v-5.45"/>
      <polyline class="cls-2" points="72.29 62.05 77.45 57.22 72.62 52.05"/>
    </g>
  </g>
  <g>
    <path class="cls-3" d="M143.54,97.13v7.87c0,1.12-.91,2.03-2.03,2.03h-11.22c-.24,0-.48-.05-.7-.13.74-.17,1.3-.83,1.3-1.63v-11.07l3.83-2.73c.7-.5,1.65-.5,2.36,0l5.61,3.99c.53.38.86,1,.86,1.66Z"/>
    <path class="cls-3" d="M130.89,84.53v20.74c0,.79-.56,1.46-1.3,1.63-.12.02-.24.04-.37.04h-14.71c-.92,0-1.66-.74-1.66-1.66v-20.74c0-.92.75-1.66,1.66-1.66h14.71c.92,0,1.66.75,1.66,1.66Z"/>
    <path class="cls-3" d="M107.72,106.85h-14.12c-1.08,0-1.96-.88-1.96-1.96v-21.65c0-.93.53-1.79,1.36-2.21l13.96-7c1.11-.56,2.53.08,2.7,1.31.01.09.02.18.02.27v29.28c0,1.08-.88,1.96-1.96,1.96Z"/>
    <g>
      <line class="cls-3" x1="116.89" y1="87.88" x2="120.02" y2="87.88"/>
      <line class="cls-3" x1="116.89" y1="92.81" x2="120.02" y2="92.81"/>
      <line class="cls-3" x1="116.89" y1="97.73" x2="120.02" y2="97.73"/>
      <line class="cls-3" x1="116.89" y1="102.66" x2="120.02" y2="102.66"/>
      <line class="cls-3" x1="123.72" y1="87.88" x2="126.85" y2="87.88"/>
      <line class="cls-3" x1="123.72" y1="92.81" x2="126.85" y2="92.81"/>
      <line class="cls-3" x1="123.72" y1="97.73" x2="126.85" y2="97.73"/>
      <line class="cls-3" x1="123.72" y1="102.66" x2="126.85" y2="102.66"/>
    </g>
    <line class="cls-3" x1="95.33" y1="84.92" x2="106.2" y2="84.92"/>
    <line class="cls-3" x1="95.33" y1="89.77" x2="106.2" y2="89.77"/>
    <line class="cls-3" x1="95.33" y1="94.62" x2="106.2" y2="94.62"/>
    <line class="cls-3" x1="95.33" y1="99.47" x2="106.2" y2="99.47"/>
  </g>
  <g>
    <path class="cls-4" d="M92.72,139.43c7.45,2.24,9.94-4.15,11.33-8.25,1.16-3.41,4.09-7.38,2.33-7.38-3.35,0-8.93.55-13.06,3.86-4.04,3.23-5.04,7.38-2.18,10.98,2.48-4.17,5.79-6.47,5.79-6.47"/>
    <path class="cls-4" d="M82.92,141.48s2.49.42,4.65,2.27c1.04-2.74-.88-7.23-8.89-7.23-1.46,0-3.13.15-5.02.49,0,0,1.69,1.21,3.5,3.61,2.21,2.92,5.31,6.44,9.61,3.91"/>
    <path class="cls-4" d="M89.51,158.75c-.24-16.48,5.7-24.46,7.23-26.07"/>
    <path class="cls-4" d="M84.2,141.81c-.05-.01,5.43,2.07,5.91,7.19"/>
    <line class="cls-4" x1="85.56" y1="158.91" x2="93.15" y2="158.91"/>
  </g>
  <path class="cls-5" d="M26.66,29.13c5.07,8.5-1.25,24.8-1.35,24.99-.21,0-17.56-2.19-22.62-10.69-3.08-5.17,2.32-13.57,10.28-10.01.65-8.69,10.25-10.06,13.7-4.28Z"/>
  <path class="cls-3" d="M166.8,60l19.48-20.87-4.17,15.3h15.3l-19.48,20.87,4.17-15.3h-15.3Z"/>
  <g>
    <polyline class="cls-1" points="131.07 42.18 139.86 44.83 130.38 44.47"/>
    <polyline class="cls-1" points="138.39 49.72 129.6 47.08 139.07 47.43"/>
    <path class="cls-1" d="M135.98,49.63l-.39,1.28c-.24.81-1.07,1.28-1.83,1.05l-1.55-.46c-.76-.23-1.19-1.08-.95-1.89l.39-1.28"/>
    <path class="cls-1" d="M152.17,28.58c2.02-6.72-1.3-13.66-7.43-15.57s-12.58,1.82-14.82,8.27c-1.24,3.6-.93,7.3.56,10.3.68,1.37.83,2.98.43,4.53-.53,2.03-.28,3.7,3.46,5.16.47.31,2.66.97,3.21.97,3.98.88,5.1-.35,5.75-2.32.51-1.55,1.54-2.84,2.89-3.64,2.72-1.6,4.93-4.29,5.95-7.7Z"/>
    <path class="cls-1" d="M137.89,41.62l1.33-3.09c.53-1.24,1.29-2.37,2.22-3.32.88-.89,1.87-2.09,1.95-3.03h0c-.05-1.32-1.44-2.07-2.51-1.34-.76.52-1.29,1.3-.96,1.92.67,1.23,2.35-1.44.5-2.42-1.21-.64-4.05.37-3.65,1.62.52,1.62,2.25-.63,2.03-1.98-.12-.76-1.08-1.19-2.07-1.09-1.15.11-2.06,1.23-2.03,2.44.04,1.56.19,3.6.19,3.6.15,1.33-.01,2.87-.46,4.38l-.36,1.19"/>
  </g>
</svg>