<svg xmlns="http://www.w3.org/2000/svg" xmlns:xlink="http://www.w3.org/1999/xlink" width="172.014" height="47.373" viewBox="0 0 172.014 47.373">
  <defs>
    <clipPath id="clip-path">
      <rect id="Rectangle_2169" data-name="Rectangle 2169" width="90.238" height="30.555" fill="#fff"/>
    </clipPath>
  </defs>
  <g id="Group_3348" data-name="Group 3348" transform="translate(-223.493 -2489.484)">
    <g id="Group_2840" data-name="Group 2840" transform="translate(223.493 2489.484)">
      <path id="Path_8068" data-name="Path 8068" d="M.766,115.034c.18.3.323.566.523.862a6.43,6.43,0,0,0,3.186,2.678c.252.111.394.187.649.278a18.28,18.28,0,0,0,4.9.579l.338,0H27.7c.262.013.55,0,.824.031a7.989,7.989,0,0,1,2.115.257c.514.153.719.223,1.2.377a6.581,6.581,0,0,1,1.013.461,3.954,3.954,0,0,1,.583.32,7,7,0,0,1,2.6,2.9,10.432,10.432,0,0,1,.6,1.407c.113.38.217.739.315,1.1.049.124.161.139.215.048.11-.3.164-.563.26-.89s.2-.627.345-.97a7.124,7.124,0,0,1,3.6-3.917c.238-.1.337-.155.6-.25a7,7,0,0,1,.887-.273,5.921,5.921,0,0,1,1.033-.231c.4-.083.805-.159,1.187-.218.61-.081,1.255-.127,1.883-.162l.149,0,16.793-.013.3-.009,1.667-.027a10.285,10.285,0,0,0,1.8-.29,12.606,12.606,0,0,0,1.494-.444,6.475,6.475,0,0,0,.666-.306,8.121,8.121,0,0,0,3.758-4.457c.1-.23.2-.451.294-.673a21.059,21.059,0,0,1-.015,2.623c-.022.242-.022.409-.046.655a10.785,10.785,0,0,1-.261,1.725c-.1.428-.221.841-.342,1.249-.066.185-.108.306-.17.461a6.985,6.985,0,0,1-3.993,3.851,6.642,6.642,0,0,1-.69.243,22.714,22.714,0,0,1-4.932.766c-.362.024-.744.038-1.106.051l-17.62.047c-.252.005-.393.029-.672.056a11.324,11.324,0,0,0-2.043.377,4.727,4.727,0,0,0-.779.25,6.211,6.211,0,0,0-3.078,2.864,7.281,7.281,0,0,0-.458.909c-.179.468-.324.911-.481,1.4-.035.132-.062.227-.1.371-.117-.365-.226-.7-.367-1.053a2.623,2.623,0,0,0-.206-.456,8.267,8.267,0,0,0-5.787-4.611s-1.225-.109-.755-.106c.588,0-20.21-.047-20.21-.047a15.069,15.069,0,0,1-2.281-.17,11.345,11.345,0,0,1-1.726-.393A8.042,8.042,0,0,1,1.064,120.3a12.506,12.506,0,0,1-.727-2.163A44.992,44.992,0,0,1,0,113.163l.028-.012a9.123,9.123,0,0,0,.736,1.883" transform="translate(0 -83.726)" fill="#fff"/>
      <path id="Path_8069" data-name="Path 8069" d="M18.744,4.6a2.492,2.492,0,0,1,2.5-2.676,2.418,2.418,0,0,1,2.5,2.588,2.454,2.454,0,0,1-2.5,2.633,2.384,2.384,0,0,1-2.5-2.545M16.288,30.379c2.543-.044,3.2-.482,3.2-1.535V15.2c0-1.315-.614-2.106-3.158-2.148V11.7l6.842-.175V28.844c0,1.053.614,1.491,3.2,1.535v1.359H16.288Z" transform="translate(-11.998 -1.788)" fill="#fff"/>
      <path id="Path_8070" data-name="Path 8070" d="M65.561,4.6a2.491,2.491,0,0,1,2.5-2.676,2.418,2.418,0,0,1,2.5,2.588,2.455,2.455,0,0,1-2.5,2.633,2.384,2.384,0,0,1-2.5-2.545M63.106,30.379c2.544-.044,3.2-.482,3.2-1.535V15.2c0-1.315-.614-2.106-3.158-2.148V11.7l6.842-.175V28.844c0,1.053.613,1.491,3.2,1.535v1.359H63.106Z" transform="translate(-46.487 -1.788)" fill="#fff"/>
      <path id="Path_8071" data-name="Path 8071" d="M109.811,45.89l9.429-.219c.44-3.728-1.183-6.929-4.341-6.929-2.675,0-4.737,2.062-5.088,7.149m-3.99,2.1c0-6.008,3.684-10.613,9.385-10.613,5.745,0,8.377,5,8.026,9.824H109.768v.351c0,4.824,2.412,8.332,6.71,8.332,2.456,0,4.429-1.579,6.184-3.728l.877.834c-1.624,2.719-3.9,5.218-8.333,5.218-6.14,0-9.385-4.429-9.385-10.219" transform="translate(-77.953 -27.911)" fill="#fff"/>
      <path id="Path_8072" data-name="Path 8072" d="M197.415,27.776V14.794A4.883,4.883,0,0,0,192.9,12.25c-3.112,0-5.874,3.2-5.874,9.166,0,4.692,2.28,8.2,6.225,8.2a6.473,6.473,0,0,0,4.166-1.841m-14.47-6.141c0-6.1,3.86-10.745,9.734-10.745a8.526,8.526,0,0,1,4.736,1.185V5.105c0-1.316-.834-2.106-3.377-2.15V1.6l7.06-.176V28.477c0,1.1.658,1.491,3.2,1.579v1.315l-6.8.176V29.223a7.911,7.911,0,0,1-5.964,2.5c-5.391,0-8.593-4.429-8.593-10.087" transform="translate(-134.766 -1.42)" fill="#fff"/>
    </g>
    <g id="Group_2841" data-name="Group 2841" transform="translate(305.27 2497.893)">
      <g id="Group_2763" data-name="Group 2763" transform="translate(0 0)" clip-path="url(#clip-path)">
        <path id="Path_8073" data-name="Path 8073" d="M83.954,0H12.563A6.284,6.284,0,0,0,6.279,6.284V24.41A6.282,6.282,0,0,1,0,30.555H83.954a6.284,6.284,0,0,0,6.284-6.284V6.284A6.284,6.284,0,0,0,83.954,0" transform="translate(0 0)" fill="#fff"/>
      </g>
    </g>
    <text id="Podcasts" transform="translate(318.895 2518.484)" fill="#111827" font-size="19" font-family="ChronicleTextG1-Roman, Chronicle Text G1"><tspan x="0" y="0">Podcasts</tspan></text>
  </g>
</svg>
