<svg 
  id="logo" 
  xmlns="http://www.w3.org/2000/svg" 
  xmlns:xlink="http://www.w3.org/1999/xlink"
  width="73"
  height="44"
  viewBox="0 0 73 44">
  <path fill="#00a2d8" class="fill-iiedblue-500 group-hover:fill-iiedblue-700" d="M68.08,27.98c.02.61-1.68,4.22-4.82,5.11-1.66.47-4.23.5-8.65.5-2.37,0-8.34-.05-12.76,0-5.69.06-7.38,4.56-7.8,6.43-.42-1.87-2.12-6.37-7.81-6.43-4.42-.05-10.39,0-12.76,0-4.42,0-6.99-.03-8.65-.5C1.69,32.19,0,28.59.02,27.98c-.23,7.18,2.19,10.29,9.05,10.57h18.48c3.04-.04,5.64,2.7,6.5,5.47.86-2.77,3.46-5.51,6.49-5.47h18.48c6.86-.28,9.29-3.39,9.05-10.57Z"/>
  <path d="M6.17,3.37c-.1-1.28.86-2.39,2.14-2.49,0,0,.01,0,.02,0h.16c1.24-.05,2.28.92,2.33,2.16,0,0,0,0,0,0,0,.08,0,.17,0,.25.04,1.28-.96,2.36-2.24,2.4,0,0,0,0,0,0h-.08c-1.24.04-2.28-.92-2.32-2.16h0v-.16M3.93,27.1c2.32,0,2.96-.4,2.96-1.36v-12.58c0-1.2-.56-2-2.89-2v-1.29l6.25-.16v16.03c0,.96.56,1.36,2.97,1.36v1.28H3.93v-1.28Z"/>
  <path d="M17.55,3.37c-.09-1.28.87-2.4,2.15-2.49,0,0,0,0,0,0h.17c1.24-.05,2.28.92,2.33,2.16h0v.25c.05,1.28-.96,2.36-2.24,2.4,0,0,0,0,0,0h-.09c-1.24.05-2.28-.92-2.33-2.16h0v-.16M15.31,27.1c2.33,0,2.96-.4,2.96-1.36v-12.58c0-1.2-.56-2-2.96-2v-1.29l6.34-.16v16.03c0,.96.56,1.36,2.96,1.36v1.28h-9.3v-1.27Z"/>
  <path d="M29.33,17.32l8.74-.16c.4-3.45-1.11-6.41-4.02-6.41s-4.41,1.92-4.73,6.57M25.63,19.24c0-5.54,3.43-9.77,8.66-9.77s7.77,4.65,7.37,9.06h-12.32v.24h0c0,4.49,2.16,7.7,6.17,7.7,2.24,0,4.09-1.44,5.69-3.45l.79.79c-1.52,2.48-3.61,4.81-7.7,4.81-5.61,0-8.66-4.09-8.66-9.46"/>
  <path d="M57.71,25.01v-11.94c-.84-1.5-2.45-2.39-4.17-2.32-2.89,0-5.37,2.96-5.37,8.42s2.09,7.61,5.69,7.61c1.46-.07,2.84-.7,3.85-1.76M44.4,19.4c0-5.61,3.53-9.94,8.98-9.94,1.52-.06,3.03.33,4.33,1.12v-6.41c0-1.2-.72-1.92-3.13-2V.88l6.57-.16v25.01c0,.96.56,1.36,2.89,1.44v1.2l-6.25.16v-2.16c-1.4,1.52-3.38,2.37-5.45,2.33-4.97,0-7.94-4.09-7.94-9.3"/>
</svg>
